<svg width="61" height="60" fill="none" xmlns="http://www.w3.org/2000/svg"><path d="M60.607 30c0-16.57-13.43-30-30-30s-30 13.43-30 30c0 14.977 10.97 27.387 25.313 29.637V38.672h-7.617V30h7.617v-6.61c0-7.517 4.476-11.671 11.332-11.671 3.281 0 6.715.586 6.715.586v7.383h-3.785c-3.727 0-4.887 2.314-4.887 4.687V30h8.32l-1.33 8.672h-6.99v20.965C49.639 57.387 60.607 44.977 60.607 30Z" fill="#1877F2"/><path d="M42.285 38.672 43.615 30h-8.32v-5.625c0-2.373 1.16-4.688 4.887-4.688h3.785v-7.382s-3.434-.586-6.715-.586c-6.855 0-11.332 4.154-11.332 11.672V30h-7.617v8.672h7.617v20.965c1.53.24 3.094.363 4.688.363 1.593 0 3.158-.123 4.687-.363V38.672h6.99Z" fill="#fff"/></svg>