<svg width="181" height="109" fill="none" xmlns="http://www.w3.org/2000/svg"><path d="M72.375 23.75H88v15.625M28.625 86.25H13V70.625M88 70.625V86.25H72.375M13 39.375V23.75h15.625M31.75 39.375v31.25M69.25 39.375v31.25M56.75 39.375v31.25M44.25 39.375v31.25" stroke="#6C63FF" stroke-width="6.25" stroke-linecap="round" stroke-linejoin="round"/><path d="m116.523 58.228 30.216-8.096M119.016 67.525l30.215-8.096M111.837 91.869l-11.833-44.161a2.405 2.405 0 0 1 1.701-2.947l51.134-13.702a2.407 2.407 0 0 1 2.947 1.702l11.833 44.16-10.543-2.157-8.051 7.14-10.543-2.157-8.051 7.14-10.543-2.158-8.051 7.14Z" stroke="#A09AFF" stroke-width="4.813" stroke-linecap="round" stroke-linejoin="round"/><path d="m112.959 7.039-6.729 25.114M117.65 16.578a4.993 4.993 0 0 0-.5-3.794 4.995 4.995 0 0 0-3.036-2.33l-4.346-1.164a5 5 0 0 0-2.589 9.659l5.313 1.423a5 5 0 1 1-2.588 9.66l-5.796-1.553a5 5 0 0 1-3.535-6.124" stroke="#A09AFF" stroke-width="2" stroke-linecap="round" stroke-linejoin="round"/></svg>