<svg width="109" height="109" fill="none" xmlns="http://www.w3.org/2000/svg"><path d="M47.688 78.344H13.624a6.812 6.812 0 0 1-6.813-6.813V40.875a6.813 6.813 0 0 1 6.813-6.813h34.063M47.688 91.969H27.25" stroke="#838383" stroke-width="6.813" stroke-linecap="round" stroke-linejoin="round"/><path d="M88.563 30.656H74.936M88.563 44.281H74.936M87.781 17.031H53.72a3.406 3.406 0 0 0-3.407 3.407v68.124a3.406 3.406 0 0 0 3.407 3.407H87.78a3.406 3.406 0 0 0 3.406-3.406V20.436a3.406 3.406 0 0 0-3.406-3.406Z" stroke="#B0B0B0" stroke-width="6.813" stroke-linecap="round" stroke-linejoin="round"/><path d="M37.469 78.344v13.625" stroke="#838383" stroke-width="6.813" stroke-linecap="round" stroke-linejoin="round"/><path d="M81.75 81.75a5.11 5.11 0 1 0 0-10.219 5.11 5.11 0 0 0 0 10.219Z" fill="#B0B0B0"/></svg>