<svg width="109" height="109" viewBox="0 0 109 109" fill="none" xmlns="http://www.w3.org/2000/svg">
<path d="M47.6875 78.3438H13.625C11.8182 78.3438 10.0854 77.626 8.80783 76.3484C7.53024 75.0708 6.8125 73.338 6.8125 71.5312V40.875C6.8125 39.0682 7.53024 37.3354 8.80783 36.0578C10.0854 34.7802 11.8182 34.0625 13.625 34.0625H47.6875" stroke="#838383" stroke-width="6.8125" stroke-linecap="round" stroke-linejoin="round"/>
<path d="M47.6875 91.9688H27.25" stroke="#838383" stroke-width="6.8125" stroke-linecap="round" stroke-linejoin="round"/>
<path d="M88.5625 30.6562H74.9375" stroke="#B0B0B0" stroke-width="6.8125" stroke-linecap="round" stroke-linejoin="round"/>
<path d="M88.5625 44.2812H74.9375" stroke="#B0B0B0" stroke-width="6.8125" stroke-linecap="round" stroke-linejoin="round"/>
<path d="M87.7812 17.0312H53.7188C51.8375 17.0312 50.3125 18.5563 50.3125 20.4375V88.5625C50.3125 90.4437 51.8375 91.9688 53.7188 91.9688H87.7812C89.6625 91.9688 91.1875 90.4437 91.1875 88.5625V20.4375C91.1875 18.5563 89.6625 17.0312 87.7812 17.0312Z" stroke="#B0B0B0" stroke-width="6.8125" stroke-linecap="round" stroke-linejoin="round"/>
<path d="M37.4688 78.3438V91.9688" stroke="#838383" stroke-width="6.8125" stroke-linecap="round" stroke-linejoin="round"/>
<path d="M81.75 81.75C84.5718 81.75 86.8594 79.4625 86.8594 76.6406C86.8594 73.8188 84.5718 71.5312 81.75 71.5312C78.9282 71.5312 76.6406 73.8188 76.6406 76.6406C76.6406 79.4625 78.9282 81.75 81.75 81.75Z" fill="#B0B0B0"/>
</svg>
