<svg width="154" height="93" fill="none" xmlns="http://www.w3.org/2000/svg"><path d="M16.957 67.83h56.525a5.653 5.653 0 0 0 5.653-5.652V22.61a5.653 5.653 0 0 0-5.653-5.652H16.957a5.652 5.652 0 0 0-5.652 5.652v39.568a5.653 5.653 0 0 0 5.652 5.652ZM56.526 79.135h-22.61M11.305 53.699h67.83M45.22 67.83v11.305" stroke="#838383" stroke-width="5.653" stroke-linecap="round" stroke-linejoin="round"/><path d="M140.78 63.138H98.12a2.133 2.133 0 0 0-2.134 2.133v12.798c0 1.178.955 2.133 2.133 2.133h42.661a2.133 2.133 0 0 0 2.133-2.133V65.27a2.133 2.133 0 0 0-2.133-2.133ZM140.78 37.541H98.12a2.133 2.133 0 0 0-2.134 2.133v12.798c0 1.178.955 2.133 2.133 2.133h42.661a2.133 2.133 0 0 0 2.133-2.133V39.674a2.133 2.133 0 0 0-2.133-2.133Z" stroke="#B0B0B0" stroke-width="4.266" stroke-linecap="round" stroke-linejoin="round"/><path d="M133.315 49.273a3.2 3.2 0 1 0 0-6.398 3.2 3.2 0 0 0 0 6.398ZM133.315 74.87a3.2 3.2 0 1 0 0-6.399 3.2 3.2 0 0 0 0 6.398Z" fill="#B0B0B0"/></svg>