<svg width="140" height="105" fill="none" xmlns="http://www.w3.org/2000/svg"><path d="M129.375 12.75h-46.75a2.125 2.125 0 0 0-2.125 2.125v38.25c0 1.174.951 2.125 2.125 2.125h46.75a2.125 2.125 0 0 0 2.125-2.125v-38.25a2.125 2.125 0 0 0-2.125-2.125Z" stroke="#A09AFF" stroke-width="4.25" stroke-linecap="round" stroke-linejoin="round"/><path d="m80.5 44.625 13.372-13.372a2.124 2.124 0 0 1 3.006 0l11.869 11.87a2.133 2.133 0 0 0 1.503.622 2.125 2.125 0 0 0 1.503-.623l5.494-5.495a2.133 2.133 0 0 1 1.503-.622 2.125 2.125 0 0 1 1.503.622L131.5 48.875" stroke="#A09AFF" stroke-width="4.25" stroke-linecap="round" stroke-linejoin="round"/><path d="M113.438 29.75a3.187 3.187 0 1 0 0-6.375 3.187 3.187 0 0 0 0 6.375Z" fill="#A09AFF"/><path d="M46.5 93.5C65.554 93.5 81 78.054 81 59c0-19.054-15.446-34.5-34.5-34.5C27.446 24.5 12 39.946 12 59c0 19.054 15.446 34.5 34.5 34.5ZM46.5 24.5l13.18 36.906M16.623 41.75l38.552 7.038M16.623 76.25l25.372-29.868M46.501 93.5l-13.18-36.906M76.378 76.25l-38.552-7.038M76.38 41.75 51.007 71.618" stroke="#6C63FF" stroke-width="5.75" stroke-linecap="round" stroke-linejoin="round"/></svg>