<svg width="154" height="93" viewBox="0 0 154 93" fill="none" xmlns="http://www.w3.org/2000/svg">
<path d="M16.957 67.8303L73.4822 67.8303C76.604 67.8303 79.1348 65.2995 79.1348 62.1777V22.6101C79.1348 19.4883 76.604 16.9576 73.4822 16.9576L16.957 16.9576C13.8352 16.9576 11.3045 19.4883 11.3045 22.6101V62.1777C11.3045 65.2995 13.8352 67.8303 16.957 67.8303Z" stroke="#6C63FF" stroke-width="5.65252" stroke-linecap="round" stroke-linejoin="round"/>
<path d="M56.5261 79.1353H33.916" stroke="#6C63FF" stroke-width="5.65252" stroke-linecap="round" stroke-linejoin="round"/>
<path d="M11.3047 53.699H79.135" stroke="#6C63FF" stroke-width="5.65252" stroke-linecap="round" stroke-linejoin="round"/>
<path d="M45.2207 67.8303V79.1353" stroke="#6C63FF" stroke-width="5.65252" stroke-linecap="round" stroke-linejoin="round"/>
<path d="M140.78 63.1376H98.1194C96.9413 63.1376 95.9863 64.0926 95.9863 65.2707V78.0688C95.9863 79.2469 96.9413 80.2019 98.1194 80.2019H140.78C141.958 80.2019 142.913 79.2469 142.913 78.0688V65.2707C142.913 64.0926 141.958 63.1376 140.78 63.1376Z" stroke="#A09AFF" stroke-width="4.26605" stroke-linecap="round" stroke-linejoin="round"/>
<path d="M140.78 37.5413H98.1194C96.9413 37.5413 95.9863 38.4962 95.9863 39.6743V52.4725C95.9863 53.6505 96.9413 54.6055 98.1194 54.6055H140.78C141.958 54.6055 142.913 53.6505 142.913 52.4725V39.6743C142.913 38.4962 141.958 37.5413 140.78 37.5413Z" stroke="#A09AFF" stroke-width="4.26605" stroke-linecap="round" stroke-linejoin="round"/>
<path d="M133.315 49.2729C135.082 49.2729 136.514 47.8404 136.514 46.0734C136.514 44.3063 135.082 42.8738 133.315 42.8738C131.548 42.8738 130.115 44.3063 130.115 46.0734C130.115 47.8404 131.548 49.2729 133.315 49.2729Z" fill="#A09AFF"/>
<path d="M133.315 74.8693C135.082 74.8693 136.514 73.4368 136.514 71.6698C136.514 69.9027 135.082 68.4702 133.315 68.4702C131.548 68.4702 130.115 69.9027 130.115 71.6698C130.115 73.4368 131.548 74.8693 133.315 74.8693Z" fill="#A09AFF"/>
</svg>
