<svg width="142" height="115" fill="none" xmlns="http://www.w3.org/2000/svg"><path d="M48.5 102.875c20.09 0 36.375-16.286 36.375-36.375 0-20.09-16.286-36.375-36.375-36.375-20.09 0-36.375 16.286-36.375 36.375 0 20.09 16.286 36.375 36.375 36.375Z" stroke="#6C63FF" stroke-width="6.063" stroke-miterlimit="10"/><path d="m18.791 87.49 4.31-2.603a2.662 2.662 0 0 0 1.244-2.752l-2.448-13.541a2.662 2.662 0 0 1 .278-1.74l4.049-7.487c.168-.31.396-.584.67-.805l6.198-4.998a2.661 2.661 0 0 1 2.954-.26l2.725 1.498c.563.31.996.813 1.217 1.417l.52 1.42a2.662 2.662 0 0 0 4.814.399l1.789-3.147a2.662 2.662 0 0 1 3.757-.921l5.462 3.524a2.661 2.661 0 0 0 4.017-2.918v0a2.662 2.662 0 0 1 1.426-3.084L69.3 47.9a2.66 2.66 0 0 0 1.472-2.885l-1.552-8.414M72.532 93.802l-5.52-5.531a2.662 2.662 0 0 0-1.884-.782h-4.333a2.662 2.662 0 0 1-2.634-3.05l.902-6.126a2.662 2.662 0 0 1 1.402-1.972l9.042-4.718a2.663 2.663 0 0 1 3.002.373l9.564 8.52" stroke="#6C63FF" stroke-width="6.063" stroke-linecap="round" stroke-linejoin="round"/><path d="M110.577 87.234a8.464 8.464 0 1 0-4.382-16.352 8.464 8.464 0 0 0 4.382 16.352Z" stroke="#A09AFF" stroke-width="2.604" stroke-miterlimit="10"/><path d="M116.875 68.347a8.47 8.47 0 0 1 10.063 1.051 8.456 8.456 0 0 1 2.725 6.46 8.46 8.46 0 0 1-6.27 7.942M100.829 96.147a14.338 14.338 0 0 1 9.745-8.913 14.328 14.328 0 0 1 12.897 2.846" stroke="#A09AFF" stroke-width="2.604" stroke-linecap="round" stroke-linejoin="round"/><path d="M123.395 83.8a14.303 14.303 0 0 1 12.895 2.845" stroke="#A09AFF" stroke-width="2.604" stroke-linecap="round" stroke-linejoin="round"/><path d="m90.28 30.8-8.855 4.065 6.05-23.741a1.531 1.531 0 0 1 1.862-1.106l23.741 6.05a1.53 1.53 0 0 1 1.106 1.863l-4.16 16.322a1.53 1.53 0 0 1-1.862 1.105l-17.883-4.557Z" stroke="#A09AFF" stroke-width="3.063" stroke-linecap="round" stroke-linejoin="round"/><path d="m91.84 31.199-1.892 7.419a1.531 1.531 0 0 0 1.106 1.862l17.883 4.558 5.829 7.806 6.051-23.741a1.534 1.534 0 0 0-1.106-1.862l-7.419-1.891" stroke="#A09AFF" stroke-width="3.063" stroke-linecap="round" stroke-linejoin="round"/></svg>