<svg width="155" height="109" fill="none" xmlns="http://www.w3.org/2000/svg"><path d="M135.5 83.514V31.325c0-2.62-2.183-4.744-4.875-4.744h-29.25c-2.692 0-4.875 2.124-4.875 4.744v52.189c0 2.62 2.183 4.744 4.875 4.744h29.25c2.692 0 4.875-2.124 4.875-4.744ZM106.25 36.07h19.5" stroke="#A09AFF" stroke-width="4.875" stroke-linecap="round" stroke-linejoin="round"/><path d="M72.188 16.393H32.812c-3.624 0-6.562 2.859-6.562 6.386v70.254c0 3.528 2.938 6.387 6.563 6.387h39.374c3.625 0 6.563-2.86 6.563-6.387V22.78c0-3.527-2.938-6.386-6.563-6.386ZM26.25 29.166h52.5M26.25 86.647h52.5" stroke="#6C63FF" stroke-width="6.563" stroke-linecap="round" stroke-linejoin="round"/></svg>