<svg width="56" height="57" fill="none" xmlns="http://www.w3.org/2000/svg"><path d="M38.92.957H16.514C7.408.957 0 8.365 0 17.47v22.406c0 9.106 7.408 16.514 16.514 16.514H38.92c9.106 0 16.515-7.408 16.515-16.514V17.471C55.435 8.365 48.026.957 38.92.957Zm10.938 38.92c0 6.04-4.897 10.938-10.938 10.938H16.514c-6.04 0-10.937-4.897-10.937-10.938V17.471c0-6.04 4.897-10.938 10.937-10.938H38.92c6.041 0 10.938 4.897 10.938 10.938v22.406Z" fill="url(#a)"/><path d="M27.718 14.336c-7.905 0-14.337 6.432-14.337 14.338 0 7.905 6.432 14.337 14.337 14.337 7.906 0 14.338-6.431 14.338-14.337s-6.432-14.338-14.338-14.338Zm0 23.099a8.76 8.76 0 1 1 0-17.522 8.76 8.76 0 1 1 0 17.522Z" fill="url(#b)"/><path d="M42.08 17.88a3.435 3.435 0 1 0 0-6.871 3.435 3.435 0 0 0 0 6.87Z" fill="url(#c)"/><defs><linearGradient id="a" x1="27.717" y1="56.23" x2="27.717" y2="1.387" gradientUnits="userSpaceOnUse"><stop stop-color="#E09B3D"/><stop offset=".3" stop-color="#C74C4D"/><stop offset=".6" stop-color="#C21975"/><stop offset="1" stop-color="#7024C4"/></linearGradient><linearGradient id="b" x1="27.718" y1="56.23" x2="27.718" y2="1.387" gradientUnits="userSpaceOnUse"><stop stop-color="#E09B3D"/><stop offset=".3" stop-color="#C74C4D"/><stop offset=".6" stop-color="#C21975"/><stop offset="1" stop-color="#7024C4"/></linearGradient><linearGradient id="c" x1="42.08" y1="56.23" x2="42.08" y2="1.387" gradientUnits="userSpaceOnUse"><stop stop-color="#E09B3D"/><stop offset=".3" stop-color="#C74C4D"/><stop offset=".6" stop-color="#C21975"/><stop offset="1" stop-color="#7024C4"/></linearGradient></defs></svg>