<svg width="88" height="31" viewBox="0 0 88 31" fill="none" xmlns="http://www.w3.org/2000/svg">
<path d="M10.2477 8.41577C10.2477 8.4467 9.8611 9.27409 9.08783 10.898C8.82879 11.4624 8.43249 12.3053 7.89893 13.4265C7.84867 13.5309 7.79647 13.5831 7.74234 13.5831H6.69843C6.62497 13.5831 6.56504 13.5309 6.51865 13.4265C6.23254 12.7538 5.82077 11.6944 5.28335 10.2484C5.01658 10.9598 4.60094 12.0192 4.03646 13.4265C3.99393 13.5309 3.93593 13.5831 3.86247 13.5831H2.82436C2.76637 13.5831 2.71224 13.5309 2.66197 13.4265C2.3952 12.8659 1.99503 12.0231 1.46148 10.898C0.723005 9.35915 0.35377 8.53176 0.35377 8.41577C0.35377 8.09873 0.363436 7.62123 0.382768 6.98329C0.402099 6.34534 0.411765 5.86785 0.411765 5.55081C0.411765 5.48122 0.460094 5.44642 0.556753 5.44642C0.626347 5.44642 0.730738 5.45222 0.869926 5.46382C1.01298 5.47542 1.11931 5.48122 1.1889 5.48122C1.25463 5.48122 1.35322 5.47735 1.48467 5.46962C1.61613 5.46188 1.71472 5.45802 1.78045 5.45802C1.86164 5.45802 1.90224 5.48702 1.90224 5.54501C1.90224 5.85818 1.88291 6.33181 1.84424 6.96589C1.80945 7.5961 1.79205 8.0678 1.79205 8.38097C1.79205 8.57815 2.18255 9.47128 2.96355 11.0603C3.22259 11.5862 3.36372 11.8491 3.38691 11.8491C3.39465 11.8452 3.40431 11.8317 3.41591 11.8085C3.46231 11.7196 3.5609 11.4721 3.71169 11.0661C3.99006 10.3122 4.27617 9.45581 4.57001 8.49696C4.58161 8.4003 4.58741 8.09486 4.58741 7.58064C4.58741 7.35252 4.57968 7.01229 4.56421 6.55992C4.55261 6.1037 4.54682 5.76153 4.54682 5.53341C4.54682 5.47542 4.58741 5.44642 4.6686 5.44642C4.74207 5.44642 4.85226 5.45222 4.99918 5.46382C5.1461 5.47542 5.25822 5.48122 5.33555 5.48122C5.40128 5.48122 5.49987 5.47542 5.63132 5.46382C5.76278 5.45222 5.86137 5.44642 5.9271 5.44642C6.01602 5.44642 6.06049 5.47735 6.06049 5.53921C6.06049 5.78279 6.05275 6.15009 6.03729 6.64112C6.02182 7.12828 6.01409 7.49365 6.01409 7.73722C6.01409 8.13546 6.01602 8.3771 6.01989 8.46216C6.03149 8.65548 6.3234 9.50414 6.89562 11.0081C6.95748 11.1783 7.058 11.4218 7.19719 11.7389C7.20106 11.7544 7.20879 11.7679 7.22039 11.7795C7.24359 11.7795 7.38084 11.5224 7.63215 11.0081C8.39382 9.45001 8.77466 8.57042 8.77466 8.36937C8.77466 8.05233 8.75726 7.5787 8.72246 6.94849C8.68766 6.31828 8.67027 5.84658 8.67027 5.53341C8.67027 5.47542 8.68573 5.44642 8.71666 5.44642C8.79399 5.44642 8.90805 5.45222 9.05883 5.46382C9.21349 5.47542 9.32948 5.48122 9.4068 5.48122C9.4764 5.48122 9.58272 5.47542 9.72578 5.46382C9.86883 5.45222 9.97709 5.44642 10.0505 5.44642C10.1317 5.44642 10.1781 5.46962 10.1897 5.51601C10.1897 5.51215 10.1897 5.56628 10.1897 5.6784C10.1897 5.98384 10.1994 6.44007 10.2187 7.04708C10.2381 7.6541 10.2477 8.11033 10.2477 8.41577ZM16.256 13.3801C16.256 13.5232 16.2154 13.5947 16.1342 13.5947C16.0144 13.5947 15.8327 13.5928 15.5891 13.5889C15.3455 13.5851 15.1638 13.5831 15.0439 13.5831C14.9473 13.5831 14.8989 13.5193 14.8989 13.3917C14.8989 13.2062 14.9047 12.9259 14.9163 12.5508C14.9318 12.1758 14.9395 11.8935 14.9395 11.7041C14.9395 11.5262 14.9318 11.2575 14.9163 10.898C14.9047 10.5345 14.8989 10.2619 14.8989 10.0802C14.8989 9.38429 14.5703 9.03631 13.913 9.03631C13.7004 9.03631 13.422 9.14264 13.0779 9.35529C12.7106 9.5834 12.5269 9.79218 12.5269 9.98163V13.4265C12.5269 13.5387 12.4863 13.5947 12.4051 13.5947C12.2853 13.5947 12.1055 13.5928 11.8658 13.5889C11.6261 13.5851 11.4463 13.5831 11.3264 13.5831C11.2375 13.5831 11.1931 13.5309 11.1931 13.4265V10.6254C11.1931 10.1692 11.1679 9.1987 11.1177 7.71403C11.1099 7.25393 11.0771 6.57346 11.0191 5.6726C11.0113 5.6262 11.0075 5.59527 11.0075 5.57981C11.0075 5.51408 11.0307 5.47348 11.0771 5.45802C11.1428 5.43482 11.3612 5.42322 11.7324 5.42322C11.8136 5.42322 11.9354 5.40969 12.0978 5.38262C12.2602 5.35169 12.3781 5.33623 12.4515 5.33623C12.5018 5.33623 12.5269 5.37296 12.5269 5.44642C12.5269 5.80985 12.5115 6.35694 12.4805 7.08768C12.4535 7.81455 12.4399 8.35971 12.4399 8.72314C12.4399 8.81207 12.4554 8.85846 12.4863 8.86233C12.6835 8.69608 12.9387 8.49503 13.2519 8.25918C13.6308 8.02333 14.0309 7.90541 14.4524 7.90541C15.1792 7.90541 15.6799 8.12193 15.9544 8.55496C16.1516 8.872 16.2502 9.37462 16.2502 10.0628C16.2502 10.1827 16.2464 10.3683 16.2386 10.6196C16.2348 10.867 16.2328 11.0507 16.2328 11.1705C16.2328 11.418 16.2367 11.7872 16.2444 12.2782C16.2522 12.7693 16.256 13.1366 16.256 13.3801ZM18.8832 6.64692C18.8832 7.12248 18.6184 7.36026 18.0887 7.36026C17.5512 7.36026 17.2825 7.12248 17.2825 6.64692C17.2825 6.43427 17.3657 6.25835 17.5319 6.11916C17.6866 5.98771 17.8722 5.92198 18.0887 5.92198C18.3052 5.92198 18.4908 5.98964 18.6454 6.12496C18.8039 6.26028 18.8832 6.43427 18.8832 6.64692ZM18.8426 8.21858C18.8426 8.51629 18.8233 8.96672 18.7846 9.56987C18.7498 10.1692 18.7324 10.6196 18.7324 10.9212C18.7324 11.2034 18.7382 11.6268 18.7498 12.1912C18.7614 12.7519 18.7672 13.1714 18.7672 13.4497C18.7672 13.5309 18.7324 13.5715 18.6628 13.5715H17.5319C17.4507 13.5715 17.4101 13.4923 17.4101 13.3338C17.4101 13.067 17.4159 12.6668 17.4275 12.1333C17.443 11.5958 17.4507 11.1918 17.4507 10.9212C17.4507 10.6196 17.4275 10.1672 17.3811 9.56407C17.3386 8.96092 17.3173 8.50856 17.3173 8.20698C17.3173 8.14126 17.3579 8.10839 17.4391 8.10839C17.5087 8.10839 17.615 8.11806 17.7581 8.13739C17.905 8.15672 18.0152 8.16639 18.0887 8.16639C18.1621 8.16639 18.2704 8.15672 18.4134 8.13739C18.5604 8.11806 18.6706 8.10839 18.744 8.10839C18.8097 8.10839 18.8426 8.14512 18.8426 8.21858ZM23.227 12.516C23.227 12.6011 23.2193 12.7171 23.2038 12.864C23.1845 13.0457 23.1729 13.1636 23.169 13.2178C23.1652 13.2874 23.1594 13.3299 23.1516 13.3454C23.1362 13.3724 23.0994 13.3995 23.0414 13.4265C22.7244 13.5773 22.2257 13.6527 21.5452 13.6527C20.6405 13.6527 20.1881 13.2429 20.1881 12.4232C20.1881 12.0946 20.1958 11.6016 20.2113 10.9444C20.2268 10.2832 20.2345 9.78832 20.2345 9.45968C20.2345 9.30116 20.1552 9.2161 19.9967 9.2045C19.8537 9.2045 19.7125 9.20257 19.5733 9.1987C19.4921 9.17937 19.4516 9.02085 19.4516 8.72314C19.4516 8.61102 19.4593 8.49309 19.4748 8.36937C19.4864 8.27658 19.5482 8.22052 19.6603 8.20119C19.757 8.20119 19.8517 8.19925 19.9445 8.19539C20.1224 8.18765 20.2113 8.10839 20.2113 7.95761C20.2113 7.80295 20.2055 7.56711 20.1939 7.25007C20.1862 6.93303 20.1823 6.69525 20.1823 6.53673C20.1823 6.25448 20.2364 6.11336 20.3447 6.11336C20.3795 6.11336 20.7429 6.17329 21.435 6.29315C21.5239 6.30475 21.5684 6.34728 21.5684 6.42074C21.5684 6.59086 21.5548 6.84603 21.5278 7.18627C21.5046 7.52651 21.493 7.78169 21.493 7.95181C21.493 8.06393 21.5452 8.11999 21.6496 8.11999H23.0414C23.1072 8.11999 23.14 8.14319 23.14 8.18959C23.14 8.23598 23.1323 8.31138 23.1168 8.41577C23.1052 8.51629 23.0994 8.59169 23.0994 8.64195C23.0994 8.69994 23.1014 8.78887 23.1052 8.90873C23.1091 9.02858 23.111 9.11751 23.111 9.1755C23.111 9.24896 23.0569 9.28569 22.9487 9.28569C22.794 9.28569 22.5601 9.27603 22.2469 9.2567C21.9337 9.2335 21.6998 9.2219 21.5452 9.2219C21.5142 9.2219 21.491 9.33209 21.4756 9.55247C21.4563 9.82698 21.4466 10.2117 21.4466 10.7066V11.5707C21.4466 11.9032 21.4775 12.1352 21.5394 12.2666C21.6322 12.4677 21.8236 12.5682 22.1135 12.5682C22.2334 12.5682 22.4093 12.5431 22.6413 12.4928C22.8733 12.4387 23.0453 12.4116 23.1574 12.4116C23.2038 12.4116 23.227 12.4464 23.227 12.516ZM28.9685 10.4688C28.9685 10.7549 28.8448 10.9463 28.5974 11.0429C28.4311 11.1048 27.2345 11.2189 25.0075 11.3851C25.0577 11.7254 25.2453 12.0153 25.57 12.255C25.8793 12.4832 26.2118 12.5972 26.5676 12.5972C27.1784 12.5972 27.7391 12.4 28.2494 12.0057C28.3113 11.9554 28.3731 11.9051 28.435 11.8549C28.4659 11.8549 28.4853 11.8587 28.493 11.8665C28.5046 11.8742 28.578 12.0095 28.7134 12.2724C28.8487 12.5315 28.9164 12.6707 28.9164 12.69C28.9164 12.7132 28.8854 12.7577 28.8236 12.8234C28.2552 13.4265 27.5264 13.7281 26.6371 13.7281C25.7402 13.7281 25.0249 13.4613 24.4913 12.9278C23.9578 12.3904 23.691 11.6751 23.691 10.782C23.691 9.9855 23.9462 9.29149 24.4565 8.69994C24.994 8.0852 25.6532 7.77782 26.4342 7.77782C27.161 7.77782 27.768 8.0446 28.2552 8.57815C28.7308 9.09624 28.9685 9.72646 28.9685 10.4688ZM27.5883 10.115C27.5883 9.79412 27.4607 9.50994 27.2055 9.2625C26.9542 9.01505 26.67 8.89133 26.353 8.89133C25.9973 8.89133 25.6802 9.03438 25.4018 9.32049C25.1273 9.6066 24.9901 9.92751 24.9901 10.2832C24.9901 10.3644 25.0597 10.405 25.1989 10.405C25.7711 10.405 26.4554 10.347 27.2519 10.231C27.4761 10.2001 27.5883 10.1614 27.5883 10.115ZM39.0365 13.5367C39.0365 13.5677 39.0056 13.5831 38.9437 13.5831C38.8702 13.5831 38.7581 13.5773 38.6073 13.5657C38.4565 13.5541 38.3444 13.5483 38.271 13.5483C38.1898 13.5483 38.068 13.5541 37.9056 13.5657C37.7471 13.5773 37.6272 13.5831 37.546 13.5831C37.4571 13.5831 37.3894 13.5348 37.343 13.4381C37.2193 13.1752 36.8675 12.3614 36.2875 10.9965C36.2295 10.8574 36.0884 10.7723 35.8642 10.7414C35.8139 10.7375 35.638 10.7356 35.3364 10.7356C34.8029 10.7356 34.4858 10.7433 34.3853 10.7588C34.3041 10.7704 34.2635 10.869 34.2635 11.0545C34.2635 11.3252 34.2751 11.7312 34.2983 12.2724C34.3254 12.8099 34.3389 13.212 34.3389 13.4787C34.3389 13.5599 34.3002 13.6005 34.2229 13.6005C34.1456 13.6005 34.0277 13.5928 33.8691 13.5773C33.7145 13.558 33.5966 13.5483 33.5154 13.5483C33.4496 13.5483 33.3491 13.5541 33.2138 13.5657C33.0785 13.5773 32.9779 13.5831 32.9122 13.5831C32.8156 13.5831 32.7672 13.5387 32.7672 13.4497C32.7672 13.0206 32.7866 12.3768 32.8252 11.5185C32.8678 10.6563 32.889 10.0106 32.889 9.58147C32.889 8.35971 32.8446 7.05675 32.7556 5.6726L32.7498 5.57981C32.746 5.50248 32.8272 5.46382 32.9934 5.46382C33.3259 5.46382 33.8227 5.45608 34.4839 5.44062C35.1489 5.42129 35.6457 5.41162 35.9744 5.41162C36.8327 5.41162 37.5209 5.61654 38.039 6.02637C38.6112 6.47873 38.8973 7.12054 38.8973 7.95181C38.8973 8.52402 38.82 8.97445 38.6653 9.30309C38.5029 9.65106 38.2014 9.98163 37.7606 10.2948C37.6871 10.3451 37.6504 10.3934 37.6504 10.4398C37.6504 10.4939 37.8805 11.0081 38.3406 11.9825C38.8045 12.9568 39.0365 13.4749 39.0365 13.5367ZM37.4474 8.27658C37.4474 7.57677 37.2464 7.10894 36.8443 6.8731C36.5466 6.69911 36.0111 6.61212 35.2378 6.61212C34.6115 6.61212 34.2925 6.66238 34.2809 6.76291C34.2538 6.97169 34.2403 7.53038 34.2403 8.43897V9.54667C34.2519 9.5544 34.277 9.56214 34.3157 9.56987C34.3853 9.5776 34.4993 9.58727 34.6579 9.59887C35.0252 9.6182 35.4215 9.62786 35.8468 9.62786C36.9139 9.62786 37.4474 9.17744 37.4474 8.27658ZM45.0738 10.7588C45.0738 11.5668 44.8089 12.257 44.2793 12.8292C43.738 13.4207 43.0672 13.7165 42.2668 13.7165C41.4626 13.7165 40.7899 13.4227 40.2486 12.835C39.7189 12.2666 39.4541 11.5784 39.4541 10.7704C39.4541 9.9623 39.7189 9.27409 40.2486 8.70574C40.7937 8.12579 41.4665 7.83582 42.2668 7.83582C43.0633 7.83582 43.7322 8.12579 44.2735 8.70574C44.807 9.27023 45.0738 9.95457 45.0738 10.7588ZM43.8501 10.7704C43.8501 10.2987 43.7051 9.89658 43.4151 9.56407C43.1135 9.21223 42.7308 9.03631 42.2668 9.03631C41.8029 9.03631 41.4182 9.2103 41.1127 9.55827C40.8227 9.89464 40.6778 10.2987 40.6778 10.7704C40.6778 11.2343 40.8247 11.6364 41.1185 11.9767C41.4278 12.3362 41.8106 12.516 42.2668 12.516C42.7269 12.516 43.1097 12.3362 43.4151 11.9767C43.7051 11.6364 43.8501 11.2343 43.8501 10.7704ZM49.9454 8.32298C49.9454 8.40803 49.9009 8.59749 49.812 8.89133C49.7231 9.18517 49.6612 9.33209 49.6264 9.33209C49.4524 9.25476 49.2765 9.17744 49.0986 9.10011C48.9247 9.02278 48.7333 8.98412 48.5245 8.98412C48.0489 8.98412 47.6526 9.16004 47.3356 9.51187C47.0186 9.86371 46.86 10.2793 46.86 10.7588C46.86 11.2305 47.0186 11.6384 47.3356 11.9825C47.6604 12.3382 48.0567 12.516 48.5245 12.516C48.7835 12.516 49.0387 12.4522 49.29 12.3246C49.5413 12.197 49.6515 12.1333 49.6206 12.1333C49.6709 12.1333 49.7269 12.2956 49.7888 12.6204C49.8468 12.9143 49.8758 13.1172 49.8758 13.2294C49.8758 13.3492 49.6496 13.4671 49.1972 13.5831C48.8183 13.6798 48.538 13.7281 48.3563 13.7281C47.5598 13.7281 46.8871 13.4304 46.3381 12.835C45.8007 12.255 45.5319 11.563 45.5319 10.7588C45.5319 9.9391 45.7949 9.24316 46.3207 8.67095C46.862 8.08326 47.5366 7.78942 48.3447 7.78942C48.886 7.78942 49.3809 7.92668 49.8294 8.20119C49.9067 8.24758 49.9454 8.28818 49.9454 8.32298ZM56.377 9.60467C56.377 10.6099 55.9111 11.2827 54.9793 11.6229C54.9793 11.8201 55.1727 12.1777 55.5593 12.6958C55.9459 13.21 56.1392 13.4671 56.1392 13.4671C56.1392 13.5251 55.9459 13.5638 55.5593 13.5831C55.3041 13.5947 55.1127 13.6005 54.9851 13.6005C54.7106 13.6005 54.5386 13.5425 54.469 13.4265C54.2873 13.1172 54.0012 12.6668 53.6107 12.0753C53.5643 12.0057 53.1448 11.9767 52.3522 11.9883L52.126 11.9941V13.4265C52.126 13.5464 52.0835 13.6063 51.9984 13.6063C51.8747 13.6063 51.691 13.6044 51.4474 13.6005C51.2077 13.5967 51.026 13.5947 50.9023 13.5947C50.8172 13.5947 50.7747 13.5193 50.7747 13.3685V9.76125C50.7747 9.28956 50.7554 8.58395 50.7167 7.64443C50.6819 6.70491 50.6645 5.99931 50.6645 5.52761C50.6645 5.45802 50.7012 5.41935 50.7747 5.41162C50.9023 5.40776 51.0956 5.40002 51.3547 5.38842C51.4088 5.38456 51.5228 5.37102 51.6968 5.34783C51.836 5.3285 51.9481 5.31883 52.0332 5.31883C52.0873 5.31883 52.1144 5.36523 52.1144 5.45802C52.1144 5.6668 52.1047 5.97804 52.0854 6.39174C52.0661 6.80544 52.0564 7.11668 52.0564 7.32546V8.82173C52.0564 8.90293 52.0738 8.94352 52.1086 8.94352C52.2014 8.8662 52.3406 8.75214 52.5262 8.60135C53.1757 8.09873 53.7943 7.84742 54.382 7.84742C54.9542 7.84742 55.422 7.99434 55.7855 8.28818C56.1798 8.60908 56.377 9.04791 56.377 9.60467ZM54.9793 9.87724C54.9793 9.32436 54.6217 9.04791 53.9064 9.04791C53.3729 9.04791 52.7717 9.40362 52.1028 10.115V10.9792C52.416 11.0371 52.7949 11.0661 53.2395 11.0661C53.688 11.0661 54.0708 10.9811 54.3878 10.811C54.7822 10.5983 54.9793 10.2871 54.9793 9.87724Z" fill="#EEEEEE"/>
<path d="M0.0724939 16.9337L0.0724939 16.4407H3.8603V16.9337H2.30168V21.6385H1.63474V16.9337H0.0724939ZM5.01977 21.6385V16.4407H8.33274V16.9156H5.68671V18.5648H7.8869V19.0396H5.68671V21.1637H8.33274V21.6385H5.01977ZM10.1301 20.9535C9.59853 20.4194 9.33272 19.7815 9.33272 19.0396C9.33272 18.2978 9.59853 17.6611 10.1301 17.1294C10.6618 16.5978 11.2985 16.332 12.0404 16.332C12.6445 16.332 13.1942 16.5193 13.6896 16.8938L13.2583 17.3252C12.8813 17.0376 12.4753 16.8938 12.0404 16.8938C11.4773 16.8938 10.9965 17.1041 10.5977 17.5245C10.199 17.945 9.99966 18.45 9.99966 19.0396C9.99966 19.6293 10.199 20.1343 10.5977 20.5548C10.9965 20.9752 11.4773 21.1855 12.0404 21.1855C12.485 21.1855 12.891 21.0441 13.2583 20.7614L13.6896 21.1927C13.1894 21.5648 12.6396 21.7509 12.0404 21.7509C11.2985 21.7509 10.6618 21.4851 10.1301 20.9535ZM15.0955 21.6385V16.4407H15.7625V18.7968H18.3614V16.4407H19.032V21.6385H18.3614V19.2861H15.7625V21.6385H15.0955ZM20.6808 21.6385V16.4407H21.3477L23.9539 20.5258V16.4407H24.6208V21.6385H23.9539L21.3477 17.5499V21.6385H20.6808ZM26.6937 20.9607C26.1887 20.4315 25.9361 19.7912 25.9361 19.0396C25.9361 18.2881 26.1887 17.649 26.6937 17.1222C27.1987 16.5954 27.8367 16.332 28.6075 16.332C29.3808 16.332 30.032 16.5966 30.5612 17.1258C31.0904 17.655 31.3551 18.293 31.3551 19.0396C31.3551 19.7863 31.0904 20.4255 30.5612 20.9571C30.032 21.4863 29.3808 21.7509 28.6075 21.7509C27.8367 21.7509 27.1987 21.4875 26.6937 20.9607ZM27.1649 17.5173C26.7904 17.9329 26.6031 18.4404 26.6031 19.0396C26.6031 19.6389 26.7904 20.1464 27.1649 20.562C27.5419 20.9776 28.0228 21.1855 28.6075 21.1855C29.1923 21.1855 29.6853 20.9764 30.0864 20.5584C30.4875 20.1403 30.6881 19.6341 30.6881 19.0396C30.6881 18.4452 30.4875 17.9389 30.0864 17.5209C29.6853 17.1028 29.1923 16.8938 28.6075 16.8938C28.0228 16.8938 27.5419 17.1016 27.1649 17.5173ZM32.7429 21.6385V16.4407H33.4098V21.1492H35.929V21.6385H32.7429ZM37.6612 20.9607C37.1561 20.4315 36.9036 19.7912 36.9036 19.0396C36.9036 18.2881 37.1561 17.649 37.6612 17.1222C38.1662 16.5954 38.8041 16.332 39.575 16.332C40.3483 16.332 40.9995 16.5966 41.5287 17.1258C42.0579 17.655 42.3225 18.293 42.3225 19.0396C42.3225 19.7863 42.0579 20.4255 41.5287 20.9571C40.9995 21.4863 40.3483 21.7509 39.575 21.7509C38.8041 21.7509 38.1662 21.4875 37.6612 20.9607ZM38.1324 17.5173C37.7578 17.9329 37.5705 18.4404 37.5705 19.0396C37.5705 19.6389 37.7578 20.1464 38.1324 20.562C38.5093 20.9776 38.9902 21.1855 39.575 21.1855C40.1598 21.1855 40.6527 20.9764 41.0539 20.5584C41.455 20.1403 41.6556 19.6341 41.6556 19.0396C41.6556 18.4452 41.455 17.9389 41.0539 17.5209C40.6527 17.1028 40.1598 16.8938 39.575 16.8938C38.9902 16.8938 38.5093 17.1016 38.1324 17.5173ZM44.4534 20.9535C43.9218 20.4194 43.656 19.7815 43.656 19.0396C43.656 18.2978 43.9218 17.6611 44.4534 17.1294C44.985 16.5978 45.6218 16.332 46.3636 16.332C46.9677 16.332 47.5175 16.5193 48.0128 16.8938L47.5815 17.3252C47.2045 17.0376 46.7986 16.8938 46.3636 16.8938C45.8006 16.8938 45.3197 17.1041 44.921 17.5245C44.5223 17.945 44.3229 18.45 44.3229 19.0396C44.3229 19.6293 44.5223 20.1343 44.921 20.5548C45.3197 20.9752 45.8006 21.1855 46.3636 21.1855C46.8445 21.1855 47.271 21.0272 47.6431 20.7106V19.413H46.6463V18.9382H48.3101V20.9245C48.1578 21.0767 48.0092 21.2012 47.8642 21.2978C47.4099 21.5999 46.9097 21.7509 46.3636 21.7509C45.6218 21.7509 44.985 21.4851 44.4534 20.9535ZM49.687 21.6385V16.4407H50.354V21.6385H49.687ZM52.0753 21.6385V16.4407H55.3882V16.9156H52.7422V18.5648H54.9424V19.0396H52.7422V21.1637H55.3882V21.6385H52.0753ZM56.5549 17.6296C56.5549 17.2478 56.7193 16.9361 57.0479 16.6945C57.3765 16.4528 57.7559 16.332 58.1861 16.332C58.5171 16.332 58.847 16.4081 59.1756 16.5604C59.2843 16.6087 59.4076 16.686 59.5453 16.7923L59.2916 17.3397C59.1828 17.2551 59.0693 17.1814 58.9509 17.1186C58.673 16.9712 58.418 16.8962 58.1861 16.8938C57.9347 16.8938 57.7112 16.9591 57.5155 17.0896C57.3198 17.2176 57.2219 17.3977 57.2219 17.6296C57.2219 17.7239 57.24 17.8109 57.2763 17.8906C57.3149 17.9704 57.3802 18.0453 57.472 18.1153L57.6822 18.2785C57.7305 18.3147 57.8224 18.3679 57.9577 18.4379C58.0954 18.508 58.1716 18.5479 58.1861 18.5576L58.5304 18.746C58.6971 18.8379 58.8107 18.9043 58.8711 18.9454L59.143 19.1266C59.2662 19.2088 59.3532 19.2837 59.4039 19.3514C59.4547 19.4166 59.5115 19.4976 59.5743 19.5942C59.6396 19.6909 59.6843 19.796 59.7084 19.9096C59.7326 20.0231 59.7447 20.1488 59.7447 20.2865C59.7447 20.7022 59.5719 21.0501 59.2263 21.3305C58.8808 21.6108 58.4845 21.7509 58.0374 21.7509C57.6653 21.7509 57.3065 21.647 56.9609 21.4392C56.8087 21.3498 56.6733 21.2435 56.5549 21.1202L56.8123 20.562C56.95 20.6853 57.0866 20.7892 57.2219 20.8737C57.5384 21.0816 57.8103 21.1855 58.0374 21.1855C58.325 21.1855 58.5703 21.1021 58.7733 20.9354C58.9762 20.7662 59.0777 20.5499 59.0777 20.2865C59.0777 20.0546 58.9907 19.8467 58.8167 19.6631C58.6452 19.4794 58.4349 19.3248 58.1861 19.1991L57.443 18.8113C57.1965 18.6784 56.9863 18.5129 56.8123 18.3147C56.6407 18.1141 56.5549 17.8858 56.5549 17.6296Z" fill="#EEEEEE"/>
<path d="M87.3743 12.5335L87.3743 14.0863C86.7499 14.0863 86.257 14.267 85.8955 14.6285C85.534 14.9983 85.2875 15.52 85.156 16.1937C85.0164 16.8756 84.9301 17.7177 84.8972 18.7201C84.8644 19.7224 84.8726 20.8645 84.9219 22.1461C84.9219 24.7917 83.3239 26.0528 80.1279 25.9296L80.1279 23.662C80.5469 23.662 80.8755 23.6415 81.1138 23.6004C81.3438 23.5675 81.5944 23.4854 81.8655 23.3539C82.1367 23.2224 82.3379 22.9965 82.4694 22.6761C82.5926 22.3557 82.6543 21.9243 82.6543 21.3821C82.6543 20.1332 82.6953 19.0652 82.7775 18.1778C82.8597 17.2905 83.0075 16.4525 83.2212 15.6637C83.4266 14.8832 83.7388 14.2958 84.1578 13.9014C84.5686 13.5071 85.0739 13.3099 85.6736 13.3099C85.0657 13.3099 84.5563 13.1127 84.1455 12.7183C83.7347 12.324 83.4266 11.7324 83.2212 10.9437C83.0075 10.1632 82.8597 9.32512 82.7775 8.42958C82.6953 7.54225 82.6543 6.47829 82.6543 5.23767C82.6543 4.69542 82.5926 4.26408 82.4694 3.94366C82.3379 3.62324 82.1367 3.3973 81.8655 3.26584C81.5944 3.13439 81.3438 3.05223 81.1138 3.01936C80.8755 2.97828 80.5469 2.95774 80.1278 2.95774L80.1278 0.690133C83.3239 0.575109 84.9219 1.83626 84.9219 4.47359C84.8726 5.75528 84.8644 6.8973 84.8972 7.89965C84.9301 8.902 85.0164 9.74003 85.156 10.4137C85.2875 11.0957 85.534 11.6174 85.8955 11.9789C86.257 12.3486 86.7499 12.5335 87.3743 12.5335Z" fill="url(#paint0_linear_424_314)"/>
<line x1="64.8296" y1="7.1163" x2="79.1815" y2="7.1163" stroke="#00D2C6" stroke-width="1.97957" stroke-linecap="round"/>
<path d="M64.832 7.11609H79.1839" stroke="#00D2C6" stroke-width="1.97957" stroke-linecap="round"/>
<line x1="71.2632" y1="11.5703" x2="79.1815" y2="11.5703" stroke="#00D2C6" stroke-width="1.97957" stroke-linecap="round"/>
<line x1="71.2632" y1="11.5703" x2="79.1815" y2="11.5703" stroke="#00D2C6" stroke-width="1.97957" stroke-linecap="round"/>
<path d="M64.832 11.5707L67.8014 11.5707" stroke="#00D2C6" stroke-width="1.97957" stroke-linecap="round"/>
<path d="M64.832 11.5707L67.8014 11.5707" stroke="#00D2C6" stroke-width="1.97957" stroke-linecap="round"/>
<line x1="72.2535" y1="16.0247" x2="79.1819" y2="16.0247" stroke="#00D2C6" stroke-width="1.97957" stroke-linecap="round"/>
<line x1="64.8296" y1="16.0244" x2="68.2939" y2="16.0244" stroke="#00D2C6" stroke-width="1.97957" stroke-linecap="round"/>
<line x1="72.2535" y1="16.0247" x2="79.1819" y2="16.0247" stroke="#00D2C6" stroke-width="1.97957" stroke-linecap="round"/>
<line x1="64.8296" y1="16.0244" x2="68.2939" y2="16.0244" stroke="#00D2C6" stroke-width="1.97957" stroke-linecap="round"/>
<line x1="64.8316" y1="20.4799" x2="71.7601" y2="20.4799" stroke="#00D2C6" stroke-width="1.97957" stroke-linecap="round"/>
<line x1="74.7281" y1="20.4784" x2="79.1821" y2="20.4784" stroke="#00D2C6" stroke-width="1.97957" stroke-linecap="round"/>
<line x1="64.8316" y1="20.4799" x2="71.7601" y2="20.4799" stroke="#00D2C6" stroke-width="1.97957" stroke-linecap="round"/>
<line x1="74.7281" y1="20.4784" x2="79.1821" y2="20.4784" stroke="#00D2C6" stroke-width="1.97957" stroke-linecap="round"/>
<defs>
<linearGradient id="paint0_linear_424_314" x1="83.8154" y1="31" x2="102.754" y2="5.58804" gradientUnits="userSpaceOnUse">
<stop stop-color="#A71FBD"/>
<stop offset="1" stop-color="#EB4D4D"/>
</linearGradient>
</defs>
</svg>
