<svg width="187" height="66" viewBox="0 0 187 66" fill="none" xmlns="http://www.w3.org/2000/svg">
<path d="M21.8178 17.4979C21.8178 17.5638 20.9946 19.3253 19.3483 22.7826C18.7968 23.9844 17.953 25.7789 16.8171 28.166C16.7101 28.3883 16.5989 28.4994 16.4837 28.4994H14.2612C14.1048 28.4994 13.9772 28.3883 13.8784 28.166C13.2693 26.7337 12.3926 24.4783 11.2484 21.3997C10.6805 22.9143 9.79556 25.1697 8.59375 28.166C8.5032 28.3883 8.37973 28.4994 8.22333 28.4994H6.01316C5.88968 28.4994 5.77444 28.3883 5.66743 28.166C5.09945 26.9724 4.24749 25.178 3.11153 22.7826C1.5393 19.5064 0.753188 17.7449 0.753188 17.4979C0.753188 16.8229 0.773767 15.8063 0.814925 14.4481C0.856082 13.0899 0.876661 12.0733 0.876661 11.3983C0.876661 11.2502 0.979556 11.1761 1.18534 11.1761C1.33351 11.1761 1.55577 11.1884 1.8521 11.2131C2.15667 11.2378 2.38304 11.2502 2.53121 11.2502C2.67114 11.2502 2.88105 11.2419 3.16092 11.2255C3.44079 11.209 3.6507 11.2008 3.79063 11.2008C3.9635 11.2008 4.04993 11.2625 4.04993 11.386C4.04993 12.0527 4.00877 13.0611 3.92645 14.4111C3.85237 15.7528 3.81533 16.7571 3.81533 17.4238C3.81533 17.8436 4.64672 19.7451 6.30949 23.1283C6.86101 24.2478 7.16146 24.8075 7.21085 24.8075C7.22731 24.7993 7.24789 24.7705 7.27258 24.7211C7.37136 24.5318 7.58127 24.005 7.9023 23.1406C8.49497 21.5355 9.10411 19.7122 9.72971 17.6708C9.7544 17.465 9.76675 16.8147 9.76675 15.7199C9.76675 15.2342 9.75028 14.5099 9.71736 13.5468C9.69266 12.5754 9.68032 11.8469 9.68032 11.3613C9.68032 11.2378 9.76675 11.1761 9.93961 11.1761C10.096 11.1761 10.3306 11.1884 10.6434 11.2131C10.9562 11.2378 11.1949 11.2502 11.3596 11.2502C11.4995 11.2502 11.7094 11.2378 11.9893 11.2131C12.2691 11.1884 12.479 11.1761 12.619 11.1761C12.8083 11.1761 12.903 11.2419 12.903 11.3736C12.903 11.8922 12.8865 12.6742 12.8536 13.7196C12.8207 14.7568 12.8042 15.5347 12.8042 16.0533C12.8042 16.9011 12.8083 17.4156 12.8165 17.5967C12.8412 18.0083 13.4627 19.8151 14.681 23.0172C14.8127 23.3794 15.0267 23.8979 15.3231 24.5729C15.3313 24.6059 15.3477 24.6347 15.3724 24.6594C15.4218 24.6594 15.7141 24.112 16.2491 23.0172C17.8707 19.6999 18.6815 17.8272 18.6815 17.3991C18.6815 16.7241 18.6445 15.7158 18.5704 14.374C18.4963 13.0323 18.4593 12.028 18.4593 11.3613C18.4593 11.2378 18.4922 11.1761 18.5581 11.1761C18.7227 11.1761 18.9655 11.1884 19.2865 11.2131C19.6158 11.2378 19.8628 11.2502 20.0274 11.2502C20.1756 11.2502 20.4019 11.2378 20.7065 11.2131C21.0111 11.1884 21.2415 11.1761 21.3979 11.1761C21.5708 11.1761 21.6696 11.2255 21.6943 11.3242C21.6943 11.316 21.6943 11.4312 21.6943 11.67C21.6943 12.3203 21.7149 13.2916 21.756 14.5839C21.7972 15.8763 21.8178 16.8476 21.8178 17.4979ZM34.6096 28.0672C34.6096 28.3718 34.5232 28.5241 34.3503 28.5241C34.0951 28.5241 33.7082 28.52 33.1897 28.5117C32.6711 28.5035 32.2842 28.4994 32.029 28.4994C31.8232 28.4994 31.7203 28.3636 31.7203 28.0919C31.7203 27.6968 31.7327 27.1 31.7574 26.3016C31.7903 25.5031 31.8068 24.9022 31.8068 24.4989C31.8068 24.1202 31.7903 23.5481 31.7574 22.7826C31.7327 22.0088 31.7203 21.4285 31.7203 21.0416C31.7203 19.5599 31.0206 18.8191 29.6213 18.8191C29.1685 18.8191 28.5759 19.0454 27.8433 19.4982C27.0613 19.9838 26.6703 20.4283 26.6703 20.8317V28.166C26.6703 28.4047 26.5838 28.5241 26.411 28.5241C26.1558 28.5241 25.773 28.52 25.2627 28.5117C24.7523 28.5035 24.3695 28.4994 24.1144 28.4994C23.925 28.4994 23.8304 28.3883 23.8304 28.166V22.2022C23.8304 21.2309 23.7769 19.1648 23.6699 16.0039C23.6534 15.0243 23.5834 13.5756 23.46 11.6576C23.4435 11.5588 23.4353 11.493 23.4353 11.4601C23.4353 11.3201 23.4846 11.2337 23.5834 11.2008C23.7234 11.1514 24.1884 11.1267 24.9787 11.1267C25.1515 11.1267 25.4108 11.0979 25.7566 11.0402C26.1023 10.9744 26.3533 10.9415 26.5097 10.9415C26.6168 10.9415 26.6703 11.0197 26.6703 11.1761C26.6703 11.9498 26.6373 13.1146 26.5715 14.6704C26.5139 16.2179 26.485 17.3785 26.485 18.1523C26.485 18.3416 26.518 18.4404 26.5838 18.4487C27.0036 18.0947 27.5469 17.6667 28.2137 17.1645C29.0204 16.6624 29.8723 16.4113 30.7696 16.4113C32.3171 16.4113 33.3831 16.8723 33.9675 17.7942C34.3873 18.4692 34.5973 19.5393 34.5973 21.0046C34.5973 21.2597 34.589 21.6548 34.5726 22.1899C34.5643 22.7167 34.5602 23.1077 34.5602 23.3629C34.5602 23.8897 34.5684 24.6758 34.5849 25.7212C34.6014 26.7666 34.6096 27.5486 34.6096 28.0672ZM40.2029 13.732C40.2029 14.7445 39.6391 15.2507 38.5114 15.2507C37.3672 15.2507 36.7951 14.7445 36.7951 13.732C36.7951 13.2792 36.9721 12.9047 37.326 12.6084C37.6553 12.3285 38.0504 12.1886 38.5114 12.1886C38.9723 12.1886 39.3674 12.3326 39.6967 12.6207C40.0342 12.9088 40.2029 13.2792 40.2029 13.732ZM40.1165 17.0781C40.1165 17.7119 40.0754 18.6709 39.993 19.955C39.919 21.2309 39.8819 22.1899 39.8819 22.832C39.8819 23.4329 39.8943 24.3342 39.919 25.536C39.9437 26.7296 39.956 27.6227 39.956 28.2154C39.956 28.3883 39.8819 28.4747 39.7337 28.4747H37.326C37.1532 28.4747 37.0667 28.3059 37.0667 27.9685C37.0667 27.4005 37.0791 26.5485 37.1038 25.4126C37.1367 24.2684 37.1532 23.4082 37.1532 22.832C37.1532 22.1899 37.1038 21.2268 37.005 19.9427C36.9144 18.6586 36.8692 17.6955 36.8692 17.0534C36.8692 16.9135 36.9556 16.8435 37.1285 16.8435C37.2766 16.8435 37.503 16.8641 37.8076 16.9052C38.1204 16.9464 38.355 16.967 38.5114 16.967C38.6678 16.967 38.8982 16.9464 39.2028 16.9052C39.5156 16.8641 39.7502 16.8435 39.9066 16.8435C40.0465 16.8435 40.1165 16.9217 40.1165 17.0781ZM49.4511 26.2275C49.4511 26.4086 49.4346 26.6555 49.4017 26.9683C49.3606 27.3552 49.3359 27.6063 49.3276 27.7215C49.3194 27.8697 49.3071 27.9602 49.2906 27.9931C49.2577 28.0508 49.1795 28.1084 49.056 28.166C48.381 28.487 47.3191 28.6476 45.8704 28.6476C43.9442 28.6476 42.9811 27.775 42.9811 26.0299C42.9811 25.3302 42.9976 24.2807 43.0305 22.8813C43.0634 21.4738 43.0799 20.4201 43.0799 19.7204C43.0799 19.3829 42.9111 19.2018 42.5736 19.1771C42.2691 19.1771 41.9686 19.173 41.6723 19.1648C41.4994 19.1236 41.413 18.7861 41.413 18.1523C41.413 17.9136 41.4295 17.6625 41.4624 17.3991C41.4871 17.2016 41.6188 17.0822 41.8575 17.0411C42.0633 17.0411 42.265 17.0369 42.4625 17.0287C42.8412 17.0122 43.0305 16.8435 43.0305 16.5225C43.0305 16.1932 43.0181 15.6911 42.9934 15.0161C42.977 14.3411 42.9688 13.8349 42.9688 13.4974C42.9688 12.8965 43.084 12.596 43.3145 12.596C43.3886 12.596 44.1623 12.7236 45.6358 12.9788C45.8251 13.0035 45.9198 13.094 45.9198 13.2504C45.9198 13.6126 45.891 14.1559 45.8333 14.8803C45.7839 15.6046 45.7593 16.1479 45.7593 16.5101C45.7593 16.7488 45.8704 16.8682 46.0926 16.8682H49.056C49.1959 16.8682 49.2659 16.9176 49.2659 17.0164C49.2659 17.1151 49.2494 17.2757 49.2165 17.4979C49.1918 17.7119 49.1795 17.8724 49.1795 17.9795C49.1795 18.1029 49.1836 18.2923 49.1918 18.5474C49.2 18.8026 49.2042 18.9919 49.2042 19.1154C49.2042 19.2718 49.0889 19.35 48.8584 19.35C48.5292 19.35 48.0312 19.3294 47.3644 19.2883C46.6977 19.2389 46.1996 19.2142 45.8704 19.2142C45.8045 19.2142 45.7551 19.4488 45.7222 19.918C45.6811 20.5024 45.6605 21.3215 45.6605 22.3751V24.2149C45.6605 24.9228 45.7263 25.4167 45.858 25.6965C46.0556 26.1246 46.4631 26.3386 47.0804 26.3386C47.3356 26.3386 47.7101 26.2851 48.204 26.1781C48.6979 26.0628 49.0642 26.0052 49.3029 26.0052C49.4017 26.0052 49.4511 26.0793 49.4511 26.2275ZM61.675 21.8689C61.675 22.478 61.4116 22.8855 60.8847 23.0913C60.5308 23.223 57.9831 23.4658 53.2417 23.8197C53.3488 24.5441 53.748 25.1615 54.4394 25.6718C55.098 26.1575 55.8059 26.4003 56.5632 26.4003C57.8638 26.4003 59.0573 25.9805 60.1439 25.1409C60.2756 25.0339 60.4073 24.9269 60.539 24.8199C60.6049 24.8199 60.646 24.8281 60.6625 24.8446C60.6872 24.861 60.8436 25.1491 61.1317 25.7089C61.4198 26.2604 61.5638 26.5567 61.5638 26.5979C61.5638 26.6473 61.498 26.742 61.3663 26.8819C60.1563 28.166 58.6046 28.8081 56.7113 28.8081C54.8016 28.8081 53.2788 28.2401 52.1428 27.1041C51.0069 25.96 50.4389 24.4371 50.4389 22.5356C50.4389 20.8399 50.9822 19.3624 52.0687 18.1029C53.2129 16.7941 54.6164 16.1397 56.2792 16.1397C57.8267 16.1397 59.1191 16.7077 60.1563 17.8436C61.1687 18.9467 61.675 20.2884 61.675 21.8689ZM58.7363 21.1157C58.7363 20.4325 58.4647 19.8274 57.9214 19.3006C57.3863 18.7738 56.7813 18.5104 56.1063 18.5104C55.349 18.5104 54.674 18.815 54.0814 19.4241C53.4969 20.0332 53.2047 20.7164 53.2047 21.4738C53.2047 21.6466 53.3529 21.733 53.6492 21.733C54.8675 21.733 56.3245 21.6096 58.0202 21.3626C58.4976 21.2968 58.7363 21.2145 58.7363 21.1157ZM83.11 28.4006C83.11 28.4665 83.0441 28.4994 82.9124 28.4994C82.756 28.4994 82.5173 28.487 82.1963 28.4623C81.8752 28.4377 81.6365 28.4253 81.4801 28.4253C81.3073 28.4253 81.048 28.4377 80.7022 28.4623C80.3647 28.487 80.1096 28.4994 79.9367 28.4994C79.7474 28.4994 79.6033 28.3965 79.5045 28.1907C79.2411 27.631 78.4921 25.8982 77.2573 22.9925C77.1339 22.6961 76.8334 22.515 76.356 22.4492C76.249 22.441 75.8744 22.4368 75.2324 22.4368C74.0964 22.4368 73.4214 22.4533 73.2074 22.4862C73.0345 22.5109 72.9481 22.7208 72.9481 23.1159C72.9481 23.6922 72.9728 24.5565 73.0222 25.7089C73.0798 26.8531 73.1086 27.7092 73.1086 28.2771C73.1086 28.45 73.0263 28.5364 72.8617 28.5364C72.697 28.5364 72.446 28.52 72.1085 28.487C71.7792 28.4459 71.5282 28.4253 71.3553 28.4253C71.2154 28.4253 71.0013 28.4377 70.7132 28.4623C70.4251 28.487 70.2111 28.4994 70.0712 28.4994C69.8654 28.4994 69.7625 28.4047 69.7625 28.2154C69.7625 27.3017 69.8036 25.9311 69.886 24.1037C69.9765 22.2681 70.0218 20.8934 70.0218 19.9797C70.0218 17.3785 69.9271 14.6045 69.7378 11.6576L69.7254 11.4601C69.7172 11.2954 69.8901 11.2131 70.244 11.2131C70.9519 11.2131 72.0097 11.1966 73.4173 11.1637C74.8331 11.1226 75.8909 11.102 76.5906 11.102C78.418 11.102 79.8832 11.5383 80.9862 12.4108C82.2045 13.3739 82.8136 14.7403 82.8136 16.5101C82.8136 17.7284 82.649 18.6874 82.3197 19.3871C81.974 20.1279 81.3319 20.8317 80.3935 21.4984C80.2371 21.6055 80.1589 21.7084 80.1589 21.8071C80.1589 21.9224 80.6487 23.0172 81.6283 25.0915C82.6161 27.1659 83.11 28.2689 83.11 28.4006ZM79.7268 17.2016C79.7268 15.7117 79.2988 14.7156 78.4427 14.2135C77.8088 13.8431 76.6688 13.6579 75.0225 13.6579C73.6889 13.6579 73.0098 13.7649 72.9851 13.9789C72.9275 14.4234 72.8987 15.6129 72.8987 17.5473V19.9056C72.9234 19.9221 72.9769 19.9386 73.0592 19.955C73.2074 19.9715 73.4502 19.9921 73.7877 20.0168C74.5697 20.0579 75.4135 20.0785 76.3189 20.0785C78.5908 20.0785 79.7268 19.1195 79.7268 17.2016ZM95.9635 22.4862C95.9635 24.2066 95.3997 25.676 94.272 26.8942C93.1195 28.1537 91.6914 28.7834 89.9874 28.7834C88.2753 28.7834 86.843 28.1578 85.6906 26.9066C84.5628 25.6965 83.999 24.2313 83.999 22.5109C83.999 20.7905 84.5628 19.3253 85.6906 18.1153C86.8512 16.8805 88.2835 16.2632 89.9874 16.2632C91.6831 16.2632 93.1072 16.8805 94.2596 18.1153C95.3956 19.3171 95.9635 20.7741 95.9635 22.4862ZM93.3583 22.5109C93.3583 21.5067 93.0496 20.6506 92.4322 19.9427C91.7901 19.1936 90.9752 18.8191 89.9874 18.8191C88.9996 18.8191 88.1806 19.1895 87.5303 19.9303C86.9129 20.6465 86.6043 21.5067 86.6043 22.5109C86.6043 23.4987 86.9171 24.3548 87.5427 25.0792C88.2012 25.8447 89.0161 26.2275 89.9874 26.2275C90.967 26.2275 91.7819 25.8447 92.4322 25.0792C93.0496 24.3548 93.3583 23.4987 93.3583 22.5109ZM106.335 17.3004C106.335 17.4814 106.241 17.8848 106.051 18.5104C105.862 19.136 105.73 19.4488 105.656 19.4488C105.286 19.2842 104.911 19.1195 104.533 18.9549C104.162 18.7903 103.755 18.7079 103.31 18.7079C102.298 18.7079 101.454 19.0825 100.779 19.8316C100.104 20.5806 99.7665 21.4655 99.7665 22.4862C99.7665 23.4905 100.104 24.3589 100.779 25.0915C101.47 25.8488 102.314 26.2275 103.31 26.2275C103.862 26.2275 104.405 26.0917 104.94 25.82C105.475 25.5484 105.71 25.4126 105.644 25.4126C105.751 25.4126 105.87 25.7583 106.002 26.4497C106.125 27.0753 106.187 27.5075 106.187 27.7462C106.187 28.0014 105.706 28.2524 104.743 28.4994C103.936 28.7052 103.339 28.8081 102.952 28.8081C101.256 28.8081 99.8241 28.1742 98.6553 26.9066C97.5111 25.6718 96.939 24.1984 96.939 22.4862C96.939 20.7411 97.4987 19.2595 98.6182 18.0412C99.7706 16.79 101.207 16.1644 102.927 16.1644C104.08 16.1644 105.134 16.4566 106.088 17.0411C106.253 17.1398 106.335 17.2263 106.335 17.3004ZM120.029 20.0291C120.029 22.1693 119.037 23.6016 117.053 24.326C117.053 24.7458 117.464 25.5072 118.288 26.6102C119.111 27.705 119.522 28.2524 119.522 28.2524C119.522 28.3759 119.111 28.4582 118.288 28.4994C117.744 28.5241 117.337 28.5364 117.065 28.5364C116.481 28.5364 116.114 28.413 115.966 28.166C115.579 27.5075 114.97 26.5485 114.139 25.2891C114.04 25.1409 113.147 25.0792 111.459 25.1039L110.978 25.1162V28.166C110.978 28.4212 110.887 28.5488 110.706 28.5488C110.443 28.5488 110.052 28.5447 109.533 28.5364C109.023 28.5282 108.636 28.5241 108.373 28.5241C108.192 28.5241 108.101 28.3636 108.101 28.0425V20.3625C108.101 19.3582 108.06 17.856 107.978 15.8557C107.903 13.8554 107.866 12.3532 107.866 11.3489C107.866 11.2008 107.945 11.1184 108.101 11.102C108.373 11.0938 108.784 11.0773 109.336 11.0526C109.451 11.0444 109.694 11.0156 110.064 10.9662C110.361 10.925 110.599 10.9044 110.78 10.9044C110.896 10.9044 110.953 11.0032 110.953 11.2008C110.953 11.6453 110.933 12.3079 110.891 13.1887C110.85 14.0695 110.83 14.7321 110.83 15.1766V18.3622C110.83 18.5351 110.867 18.6215 110.941 18.6215C111.138 18.4569 111.435 18.2141 111.83 17.893C113.213 16.8229 114.53 16.2879 115.781 16.2879C116.999 16.2879 117.995 16.6007 118.769 17.2263C119.609 17.9095 120.029 18.8438 120.029 20.0291ZM117.053 20.6094C117.053 19.4323 116.291 18.8438 114.769 18.8438C113.633 18.8438 112.353 19.6011 110.929 21.1157V22.9554C111.595 23.0789 112.402 23.1406 113.349 23.1406C114.303 23.1406 115.118 22.9595 115.793 22.5974C116.633 22.1446 117.053 21.482 117.053 20.6094Z" fill="#000F30"/>
<path d="M0.154342 36.1492L0.154342 35.0997H8.2187V36.1492H4.90035V46.166H3.48041V36.1492H0.154342ZM10.6872 46.166V35.0997H17.7407V36.1106H12.1072V39.6219H16.7915V40.6329H12.1072V45.1551H17.7407V46.166H10.6872ZM21.5674 44.7075C20.4356 43.5705 19.8697 42.2123 19.8697 40.6329C19.8697 39.0534 20.4356 37.6978 21.5674 36.566C22.6993 35.4341 24.0549 34.8682 25.6343 34.8682C26.9205 34.8682 28.0909 35.2669 29.1456 36.0643L28.2273 36.9827C27.4247 36.3705 26.5604 36.0643 25.6343 36.0643C24.4356 36.0643 23.4118 36.5119 22.5629 37.4071C21.714 38.3023 21.2896 39.3775 21.2896 40.6329C21.2896 41.8882 21.714 42.9634 22.5629 43.8586C23.4118 44.7538 24.4356 45.2014 25.6343 45.2014C26.581 45.2014 27.4453 44.9004 28.2273 44.2985L29.1456 45.2168C28.0806 46.0091 26.9102 46.4052 25.6343 46.4052C24.0549 46.4052 22.6993 45.8393 21.5674 44.7075ZM32.1389 46.166V35.0997H33.5588V40.1158H39.092V35.0997H40.5197V46.166H39.092V41.1576H33.5588V46.166H32.1389ZM44.03 46.166V35.0997H45.45L50.9985 43.7969V35.0997H52.4185V46.166H50.9985L45.45 37.4611V46.166H44.03ZM56.8317 44.7229C55.7565 43.5962 55.2189 42.2329 55.2189 40.6329C55.2189 39.0329 55.7565 37.6721 56.8317 36.5505C57.907 35.429 59.2652 34.8682 60.9064 34.8682C62.5527 34.8682 63.9392 35.4315 65.0659 36.5582C66.1926 37.6849 66.7559 39.0431 66.7559 40.6329C66.7559 42.2226 66.1926 43.5834 65.0659 44.7152C63.9392 45.8419 62.5527 46.4052 60.9064 46.4052C59.2652 46.4052 57.907 45.8445 56.8317 44.7229ZM57.835 37.3917C57.0375 38.2766 56.6388 39.357 56.6388 40.6329C56.6388 41.9088 57.0375 42.9891 57.835 43.874C58.6375 44.7589 59.6613 45.2014 60.9064 45.2014C62.1514 45.2014 63.2009 44.7564 64.0549 43.8663C64.909 42.9763 65.336 41.8985 65.336 40.6329C65.336 39.3673 64.909 38.2894 64.0549 37.3994C63.2009 36.5094 62.1514 36.0643 60.9064 36.0643C59.6613 36.0643 58.6375 36.5068 57.835 37.3917ZM69.7106 46.166V35.0997H71.1306V45.1242H76.494V46.166H69.7106ZM80.1818 44.7229C79.1066 43.5962 78.5689 42.2329 78.5689 40.6329C78.5689 39.0329 79.1066 37.6721 80.1818 36.5505C81.257 35.429 82.6153 34.8682 84.2564 34.8682C85.9027 34.8682 87.2892 35.4315 88.4159 36.5582C89.5426 37.6849 90.106 39.0431 90.106 40.6329C90.106 42.2226 89.5426 43.5834 88.4159 44.7152C87.2892 45.8419 85.9027 46.4052 84.2564 46.4052C82.6153 46.4052 81.257 45.8445 80.1818 44.7229ZM81.185 37.3917C80.3876 38.2766 79.9889 39.357 79.9889 40.6329C79.9889 41.9088 80.3876 42.9891 81.185 43.874C81.9876 44.7589 83.0114 45.2014 84.2564 45.2014C85.5014 45.2014 86.551 44.7564 87.405 43.8663C88.259 42.9763 88.686 41.8985 88.686 40.6329C88.686 39.3673 88.259 38.2894 87.405 37.3994C86.551 36.5094 85.5014 36.0643 84.2564 36.0643C83.0114 36.0643 81.9876 36.5068 81.185 37.3917ZM94.6427 44.7075C93.5109 43.5705 92.9449 42.2123 92.9449 40.6329C92.9449 39.0534 93.5109 37.6978 94.6427 36.566C95.7745 35.4341 97.1302 34.8682 98.7096 34.8682C99.9958 34.8682 101.166 35.2669 102.221 36.0643L101.303 36.9827C100.5 36.3705 99.6357 36.0643 98.7096 36.0643C97.5109 36.0643 96.4871 36.5119 95.6382 37.4071C94.7893 38.3023 94.3649 39.3775 94.3649 40.6329C94.3649 41.8882 94.7893 42.9634 95.6382 43.8586C96.4871 44.7538 97.5109 45.2014 98.7096 45.2014C99.7334 45.2014 100.641 44.8644 101.434 44.1904V41.4277H99.3115V40.4168H102.854V44.6457C102.53 44.9699 102.213 45.2348 101.904 45.4406C100.937 46.0837 99.8723 46.4052 98.7096 46.4052C97.1302 46.4052 95.7745 45.8393 94.6427 44.7075ZM105.785 46.166V35.0997H107.205V46.166H105.785ZM110.87 46.166V35.0997H117.923V36.1106H112.29V39.6219H116.974V40.6329H112.29V45.1551H117.923V46.166H110.87ZM120.407 37.6309C120.407 36.818 120.757 36.1544 121.457 35.6399C122.156 35.1254 122.964 34.8682 123.88 34.8682C124.585 34.8682 125.287 35.0303 125.987 35.3544C126.218 35.4573 126.481 35.6219 126.774 35.8483L126.234 37.0135C126.002 36.8335 125.76 36.6766 125.508 36.5428C124.917 36.229 124.374 36.0695 123.88 36.0643C123.345 36.0643 122.869 36.2033 122.452 36.4811C122.036 36.7537 121.827 37.137 121.827 37.6309C121.827 37.8316 121.866 38.0168 121.943 38.1865C122.025 38.3563 122.164 38.5158 122.36 38.665L122.807 39.0123C122.91 39.0894 123.106 39.2026 123.394 39.3518C123.687 39.501 123.849 39.5859 123.88 39.6065L124.613 40.0078C124.968 40.2033 125.21 40.3448 125.339 40.4322L125.917 40.8181C126.18 40.993 126.365 41.1525 126.473 41.2965C126.581 41.4354 126.702 41.6078 126.836 41.8136C126.975 42.0194 127.07 42.2432 127.121 42.485C127.173 42.7268 127.198 42.9943 127.198 43.2875C127.198 44.1724 126.83 44.9133 126.095 45.5101C125.359 46.1069 124.515 46.4052 123.564 46.4052C122.771 46.4052 122.007 46.184 121.272 45.7416C120.947 45.5512 120.659 45.3249 120.407 45.0625L120.955 43.874C121.248 44.1364 121.539 44.3576 121.827 44.5377C122.501 44.9802 123.08 45.2014 123.564 45.2014C124.176 45.2014 124.698 45.0239 125.13 44.6689C125.562 44.3088 125.778 43.8483 125.778 43.2875C125.778 42.7936 125.593 42.3512 125.223 41.9602C124.857 41.5692 124.41 41.2399 123.88 40.9724L122.298 40.1467C121.773 39.8637 121.326 39.5113 120.955 39.0894C120.59 38.6624 120.407 38.1763 120.407 37.6309Z" fill="#000F30"/>
<path d="M186.021 26.7809L186.021 30.0869C184.692 30.0869 183.642 30.4717 182.873 31.2414C182.103 32.0285 181.578 33.1393 181.298 34.5736C181.001 36.0255 180.817 37.8184 180.747 39.9524C180.678 42.0865 180.695 44.5179 180.8 47.2466C180.8 52.8791 177.398 55.5641 170.593 55.3017L170.593 50.4739C171.485 50.4739 172.185 50.4302 172.692 50.3427C173.182 50.2728 173.716 50.0978 174.293 49.818C174.87 49.5381 175.299 49.0571 175.579 48.3749C175.841 47.6927 175.972 46.7744 175.972 45.6199C175.972 42.9611 176.06 40.6871 176.235 38.798C176.409 36.9088 176.724 35.1246 177.179 33.4454C177.616 31.7836 178.281 30.533 179.173 29.6933C180.048 28.8537 181.124 28.4339 182.4 28.4339C181.106 28.4339 180.022 28.0141 179.147 27.1745C178.272 26.3349 177.616 25.0754 177.179 23.3962C176.724 21.7344 176.409 19.9503 176.235 18.0436C176.06 16.1545 175.972 13.8893 175.972 11.248C175.972 10.0935 175.841 9.17514 175.579 8.49295C175.299 7.81076 174.87 7.32973 174.293 7.04985C173.716 6.76998 173.182 6.59506 172.692 6.52509C172.185 6.43763 171.485 6.3939 170.593 6.3939L170.593 1.56609C177.398 1.3212 180.8 4.00623 180.8 9.62119C180.695 12.35 180.678 14.7813 180.747 16.9154C180.817 19.0494 181.001 20.8336 181.298 22.268C181.578 23.7198 182.103 24.8305 182.873 25.6002C183.642 26.3873 184.692 26.7809 186.021 26.7809Z" fill="url(#paint0_linear_456_416)"/>
<line x1="138.025" y1="15.1508" x2="168.581" y2="15.1508" stroke="#00D2C6" stroke-width="4.21456" stroke-linecap="round"/>
<path d="M138.029 15.1504L168.585 15.1504" stroke="#00D2C6" stroke-width="4.21456" stroke-linecap="round"/>
<line x1="151.723" y1="24.6336" x2="168.581" y2="24.6336" stroke="#00D2C6" stroke-width="4.21456" stroke-linecap="round"/>
<line x1="151.723" y1="24.6336" x2="168.581" y2="24.6336" stroke="#00D2C6" stroke-width="4.21456" stroke-linecap="round"/>
<path d="M138.029 24.6343L144.351 24.6343" stroke="#00D2C6" stroke-width="4.21456" stroke-linecap="round"/>
<path d="M138.029 24.6343L144.351 24.6343" stroke="#00D2C6" stroke-width="4.21456" stroke-linecap="round"/>
<line x1="153.83" y1="34.1172" x2="168.581" y2="34.1172" stroke="#00D2C6" stroke-width="4.21456" stroke-linecap="round"/>
<line x1="138.025" y1="34.1165" x2="145.401" y2="34.1165" stroke="#00D2C6" stroke-width="4.21456" stroke-linecap="round"/>
<line x1="153.83" y1="34.1172" x2="168.581" y2="34.1172" stroke="#00D2C6" stroke-width="4.21456" stroke-linecap="round"/>
<line x1="138.025" y1="34.1165" x2="145.401" y2="34.1165" stroke="#00D2C6" stroke-width="4.21456" stroke-linecap="round"/>
<line x1="138.029" y1="43.601" x2="152.78" y2="43.601" stroke="#00D2C6" stroke-width="4.21456" stroke-linecap="round"/>
<line x1="159.099" y1="43.5989" x2="168.582" y2="43.5989" stroke="#00D2C6" stroke-width="4.21456" stroke-linecap="round"/>
<line x1="138.029" y1="43.601" x2="152.78" y2="43.601" stroke="#00D2C6" stroke-width="4.21456" stroke-linecap="round"/>
<line x1="159.099" y1="43.5989" x2="168.582" y2="43.5989" stroke="#00D2C6" stroke-width="4.21456" stroke-linecap="round"/>
<defs>
<linearGradient id="paint0_linear_456_416" x1="178.444" y1="66" x2="218.766" y2="11.8971" gradientUnits="userSpaceOnUse">
<stop stop-color="#A71FBD"/>
<stop offset="1" stop-color="#EB4D4D"/>
</linearGradient>
</defs>
</svg>
