<svg width="187" height="66" fill="none" xmlns="http://www.w3.org/2000/svg"><path d="M21.818 17.498c0 .066-.823 1.827-2.47 5.285a467.848 467.848 0 0 1-2.53 5.383c-.108.222-.22.333-.334.333H14.26c-.156 0-.284-.11-.383-.333-.609-1.432-1.485-3.688-2.63-6.766a349.785 349.785 0 0 1-2.654 6.766c-.09.222-.214.333-.37.333h-2.21c-.124 0-.24-.11-.347-.333-.568-1.194-1.42-2.988-2.555-5.383C1.539 19.506.753 17.745.753 17.498c0-.675.02-1.692.062-3.05.041-1.358.062-2.375.062-3.05 0-.148.103-.222.308-.222.149 0 .37.012.667.037.305.025.531.037.68.037.14 0 .35-.008.629-.024.28-.017.49-.025.63-.025.172 0 .259.061.259.185 0 .667-.041 1.675-.124 3.025a59.9 59.9 0 0 0-.11 3.013c0 .42.83 2.321 2.493 5.704.552 1.12.852 1.68.902 1.68.016-.009.037-.038.062-.087.098-.19.308-.716.63-1.58a103.294 103.294 0 0 0 1.827-5.47c.024-.206.037-.856.037-1.951 0-.486-.017-1.21-.05-2.173-.024-.972-.037-1.7-.037-2.186 0-.123.087-.185.26-.185.156 0 .39.012.703.037.313.025.552.037.717.037.14 0 .35-.012.63-.037.28-.025.489-.037.629-.037.19 0 .284.066.284.198 0 .518-.017 1.3-.05 2.346a80.564 80.564 0 0 0-.049 2.333c0 .848.004 1.363.012 1.544.025.411.647 2.218 1.865 5.42.132.362.346.88.642 1.556a.183.183 0 0 0 .05.086c.049 0 .341-.547.876-1.642 1.622-3.317 2.433-5.19 2.433-5.618 0-.675-.037-1.683-.112-3.025a59.87 59.87 0 0 1-.11-3.013c0-.123.032-.185.098-.185.165 0 .407.012.729.037.329.025.576.037.74.037.149 0 .375-.012.68-.037.304-.025.534-.037.69-.037.174 0 .273.05.297.148v.346c0 .65.02 1.622.062 2.914.041 1.292.062 2.264.062 2.914Zm12.792 10.57c0 .304-.087.456-.26.456-.255 0-.642-.004-1.16-.012a80.636 80.636 0 0 0-1.161-.013c-.206 0-.309-.135-.309-.407 0-.395.013-.992.037-1.79.033-.799.05-1.4.05-1.803 0-.379-.017-.95-.05-1.716a59.735 59.735 0 0 1-.037-1.741c0-1.482-.7-2.223-2.099-2.223-.452 0-1.045.226-1.778.68-.782.485-1.173.93-1.173 1.333v7.334c0 .239-.086.358-.259.358-.255 0-.638-.004-1.148-.012-.51-.009-.894-.013-1.149-.013-.189 0-.284-.11-.284-.333v-5.964c0-.971-.053-3.037-.16-6.198-.017-.98-.087-2.428-.21-4.346a1.51 1.51 0 0 1-.025-.198c0-.14.05-.226.148-.26.14-.049.605-.073 1.396-.073.172 0 .432-.03.778-.087.345-.066.596-.098.753-.098.107 0 .16.078.16.234 0 .774-.033 1.939-.099 3.494a102.468 102.468 0 0 0-.086 3.482c0 .19.033.288.099.297.42-.354.963-.782 1.63-1.285.806-.502 1.658-.753 2.556-.753 1.547 0 2.613.461 3.198 1.383.42.675.63 1.745.63 3.21 0 .256-.009.65-.025 1.186-.009.527-.013.918-.013 1.173 0 .527.008 1.313.025 2.358.016 1.046.025 1.828.025 2.346Zm5.593-14.336c0 1.013-.564 1.519-1.692 1.519-1.144 0-1.716-.506-1.716-1.519 0-.453.177-.827.531-1.124.33-.28.724-.42 1.185-.42.461 0 .856.145 1.186.433.337.288.506.658.506 1.111Zm-.087 3.346c0 .634-.04 1.593-.123 2.877a54.311 54.311 0 0 0-.111 2.877c0 .6.012 1.502.037 2.704.025 1.194.037 2.087.037 2.68 0 .172-.074.259-.222.259h-2.408c-.173 0-.26-.17-.26-.507 0-.567.013-1.42.038-2.555.033-1.145.05-2.005.05-2.581 0-.642-.05-1.605-.149-2.89-.09-1.283-.136-2.247-.136-2.889 0-.14.087-.21.26-.21.148 0 .374.021.679.062.312.041.547.062.703.062.157 0 .387-.02.692-.062.313-.04.547-.062.704-.062.14 0 .21.079.21.235Zm9.335 9.15c0 .18-.016.427-.05.74-.04.387-.065.638-.073.753a.957.957 0 0 1-.037.272c-.033.058-.111.115-.235.173-.675.321-1.737.482-3.186.482-1.926 0-2.889-.873-2.889-2.618 0-.7.017-1.75.05-3.149.032-1.407.049-2.46.049-3.16 0-.338-.169-.52-.506-.544-.305 0-.605-.004-.902-.012-.173-.041-.259-.379-.259-1.013 0-.238.017-.49.05-.753.024-.197.156-.317.395-.358.205 0 .407-.004.605-.012.378-.017.568-.186.568-.506 0-.33-.013-.832-.038-1.507a68.393 68.393 0 0 1-.024-1.519c0-.6.115-.901.346-.901.074 0 .847.128 2.32.383.19.025.285.115.285.271 0 .363-.029.906-.087 1.63a26.2 26.2 0 0 0-.074 1.63c0 .239.111.358.334.358h2.963c.14 0 .21.05.21.148 0 .1-.017.26-.05.482a4.6 4.6 0 0 0-.037.482c0 .123.005.312.013.567.008.256.012.445.012.568 0 .157-.115.235-.346.235-.329 0-.827-.02-1.494-.062a22.208 22.208 0 0 0-1.494-.074c-.066 0-.115.235-.148.704a37.325 37.325 0 0 0-.062 2.457v1.84c0 .708.066 1.202.198 1.482.198.428.605.642 1.222.642.256 0 .63-.054 1.124-.16.494-.116.86-.174 1.099-.174.099 0 .148.074.148.223Zm12.224-4.36c0 .61-.263 1.018-.79 1.223-.354.132-2.902.375-7.643.729.107.724.506 1.341 1.197 1.852.659.485 1.367.728 2.124.728 1.3 0 2.494-.42 3.58-1.26.133-.106.264-.213.396-.32.066 0 .107.008.123.025.025.016.182.304.47.864.288.551.432.848.432.889 0 .05-.066.144-.198.284-1.21 1.284-2.761 1.926-4.655 1.926-1.91 0-3.432-.568-4.568-1.704-1.136-1.144-1.704-2.667-1.704-4.568 0-1.696.543-3.174 1.63-4.433 1.144-1.309 2.547-1.963 4.21-1.963 1.548 0 2.84.568 3.877 1.704 1.013 1.103 1.519 2.444 1.519 4.025Zm-2.939-.752c0-.683-.271-1.289-.815-1.815-.535-.527-1.14-.79-1.815-.79-.757 0-1.432.304-2.025.913-.584.61-.876 1.292-.876 2.05 0 .173.148.259.444.259 1.218 0 2.675-.123 4.371-.37.478-.066.716-.148.716-.247ZM83.11 28.4c0 .066-.066.098-.198.098-.156 0-.395-.012-.716-.037a10.35 10.35 0 0 0-.716-.037c-.173 0-.432.013-.778.037-.337.025-.592.037-.765.037-.19 0-.334-.102-.433-.308-.263-.56-1.012-2.293-2.247-5.198-.123-.297-.424-.478-.901-.544a26.042 26.042 0 0 0-1.124-.012c-1.136 0-1.81.016-2.025.05-.172.024-.259.234-.259.629 0 .576.025 1.44.074 2.593.058 1.144.087 2 .087 2.568 0 .173-.083.26-.247.26-.165 0-.416-.017-.753-.05a6.59 6.59 0 0 0-.754-.062c-.14 0-.354.013-.642.037a8.3 8.3 0 0 1-.642.037c-.206 0-.308-.094-.308-.284 0-.913.04-2.284.123-4.111.09-1.836.136-3.21.136-4.124 0-2.602-.095-5.376-.284-8.322l-.013-.198c-.008-.165.165-.247.519-.247.708 0 1.766-.016 3.173-.05 1.416-.04 2.474-.061 3.174-.061 1.827 0 3.292.436 4.395 1.309 1.218.963 1.828 2.33 1.828 4.1 0 1.217-.165 2.176-.494 2.876-.346.74-.988 1.445-1.926 2.111-.157.107-.235.21-.235.31 0 .114.49 1.21 1.47 3.284.987 2.074 1.481 3.177 1.481 3.309Zm-3.383-11.2c0-1.49-.428-2.485-1.284-2.988-.634-.37-1.774-.555-3.42-.555-1.334 0-2.013.107-2.038.32-.058.445-.086 1.635-.086 3.57v2.358a.522.522 0 0 0 .16.049c.148.017.391.037.729.062.782.04 1.626.061 2.53.061 2.273 0 3.409-.959 3.409-2.876Zm16.236 5.285c0 1.72-.563 3.19-1.691 4.408-1.153 1.26-2.58 1.89-4.285 1.89-1.712 0-3.144-.626-4.296-1.877-1.128-1.21-1.692-2.676-1.692-4.396 0-1.72.564-3.186 1.692-4.396 1.16-1.234 2.593-1.852 4.296-1.852 1.696 0 3.12.617 4.273 1.852 1.136 1.202 1.703 2.66 1.703 4.371Zm-2.605.025c0-1.004-.308-1.86-.926-2.568-.642-.75-1.457-1.124-2.445-1.124-.987 0-1.806.37-2.457 1.111-.617.716-.926 1.577-.926 2.58 0 .989.313 1.845.939 2.57.658.765 1.473 1.148 2.444 1.148.98 0 1.795-.383 2.445-1.149.618-.724.926-1.58.926-2.568Zm12.977-5.21c0 .18-.094.584-.284 1.21-.189.625-.321.938-.395.938-.37-.165-.745-.33-1.123-.494a2.98 2.98 0 0 0-1.223-.247c-1.012 0-1.856.375-2.531 1.124-.675.749-1.013 1.633-1.013 2.654 0 1.005.338 1.873 1.013 2.605.691.758 1.535 1.136 2.531 1.136.552 0 1.095-.135 1.63-.407.535-.272.77-.407.704-.407.107 0 .226.345.358 1.037.123.625.185 1.058.185 1.296 0 .255-.481.506-1.444.753-.807.206-1.404.31-1.791.31-1.696 0-3.128-.635-4.297-1.902-1.144-1.235-1.716-2.709-1.716-4.42 0-1.746.56-3.227 1.68-4.446 1.152-1.251 2.588-1.877 4.308-1.877 1.153 0 2.207.293 3.161.877.165.099.247.185.247.26Zm13.694 2.728c0 2.14-.992 3.573-2.976 4.297 0 .42.411 1.181 1.235 2.284l1.234 1.642c0 .124-.411.206-1.234.247-.544.025-.951.037-1.223.037-.584 0-.951-.123-1.099-.37-.387-.659-.996-1.617-1.827-2.877-.099-.148-.992-.21-2.68-.185l-.481.012v3.05c0 .255-.091.383-.272.383-.263 0-.654-.004-1.173-.013-.51-.008-.897-.012-1.16-.012-.181 0-.272-.16-.272-.482v-7.68c0-1.004-.041-2.506-.123-4.506-.075-2-.112-3.503-.112-4.507 0-.148.079-.23.235-.247.272-.008.683-.025 1.235-.05.115-.008.358-.036.728-.086.297-.041.535-.062.716-.062.116 0 .173.1.173.297 0 .444-.02 1.107-.062 1.988a46.48 46.48 0 0 0-.061 1.988v3.185c0 .173.037.26.111.26.197-.165.494-.408.889-.729 1.383-1.07 2.7-1.605 3.951-1.605 1.218 0 2.214.313 2.988.938.84.684 1.26 1.618 1.26 2.803Zm-2.976.58c0-1.177-.762-1.765-2.284-1.765-1.136 0-2.416.757-3.84 2.272v1.84c.666.123 1.473.185 2.42.185.954 0 1.769-.181 2.444-.544.84-.452 1.26-1.115 1.26-1.988ZM.154 36.15V35.1H8.22v1.05H4.9v10.016H3.48V36.149H.154Zm10.533 10.016V35.1h7.054v1.01h-5.634v3.512h4.684v1.01h-4.684v4.523h5.634v1.011h-7.054Zm10.88-1.458c-1.131-1.137-1.697-2.496-1.697-4.075 0-1.58.566-2.935 1.697-4.067 1.132-1.132 2.488-1.698 4.067-1.698 1.287 0 2.457.399 3.512 1.196l-.919.919c-.802-.612-1.667-.919-2.593-.919-1.198 0-2.222.448-3.071 1.343-.849.895-1.273 1.97-1.273 3.226 0 1.255.424 2.33 1.273 3.226.849.895 1.873 1.342 3.071 1.342.947 0 1.811-.3 2.593-.903l.919.919c-1.065.792-2.236 1.188-3.512 1.188-1.58 0-2.935-.566-4.067-1.697Zm10.572 1.458V35.1h1.42v5.016h5.533V35.1h1.428v11.066h-1.428v-5.008h-5.533v5.008h-1.42Zm11.891 0V35.1h1.42l5.548 8.697V35.1h1.42v11.066h-1.42l-5.548-8.705v8.705h-1.42Zm12.802-1.443c-1.075-1.127-1.613-2.49-1.613-4.09 0-1.6.538-2.96 1.613-4.083 1.075-1.121 2.433-1.682 4.074-1.682 1.647 0 3.033.563 4.16 1.69 1.127 1.127 1.69 2.485 1.69 4.075 0 1.59-.563 2.95-1.69 4.082-1.127 1.127-2.513 1.69-4.16 1.69-1.64 0-2.999-.56-4.074-1.682Zm1.003-7.331c-.797.885-1.196 1.965-1.196 3.24 0 1.277.398 2.357 1.196 3.242.803.885 1.826 1.327 3.071 1.327s2.295-.445 3.149-1.335c.854-.89 1.281-1.968 1.281-3.233 0-1.266-.427-2.344-1.281-3.234-.854-.89-1.904-1.335-3.149-1.335s-2.268.443-3.071 1.328Zm11.876 8.774V35.1h1.42v10.024h5.363v1.042h-6.783Zm10.47-1.443c-1.074-1.127-1.612-2.49-1.612-4.09 0-1.6.538-2.96 1.613-4.083 1.075-1.121 2.433-1.682 4.074-1.682 1.647 0 3.033.563 4.16 1.69 1.127 1.127 1.69 2.485 1.69 4.075 0 1.59-.563 2.95-1.69 4.082-1.127 1.127-2.513 1.69-4.16 1.69-1.64 0-2.999-.56-4.074-1.682Zm1.004-7.331c-.797.885-1.196 1.965-1.196 3.24 0 1.277.399 2.357 1.196 3.242.803.885 1.826 1.327 3.071 1.327s2.295-.445 3.149-1.335c.854-.89 1.281-1.968 1.281-3.233 0-1.266-.427-2.344-1.281-3.234-.854-.89-1.904-1.335-3.149-1.335s-2.268.443-3.071 1.328Zm13.458 7.316c-1.132-1.137-1.698-2.496-1.698-4.075 0-1.58.566-2.935 1.698-4.067 1.132-1.132 2.487-1.698 4.067-1.698 1.286 0 2.456.399 3.511 1.196l-.918.919c-.803-.612-1.667-.919-2.593-.919-1.2 0-2.223.448-3.072 1.343-.849.895-1.273 1.97-1.273 3.226 0 1.255.424 2.33 1.273 3.226.85.895 1.873 1.342 3.072 1.342 1.023 0 1.931-.337 2.724-1.01v-2.763h-2.123v-1.011h3.543v4.229c-.324.324-.641.589-.95.795a5.647 5.647 0 0 1-3.194.964c-1.58 0-2.935-.566-4.067-1.697Zm11.142 1.458V35.1h1.42v11.066h-1.42Zm5.085 0V35.1h7.053v1.01h-5.633v3.512h4.684v1.01h-4.684v4.523h5.633v1.011h-7.053Zm9.537-8.535c0-.813.35-1.477 1.05-1.991.699-.515 1.507-.772 2.423-.772.705 0 1.407.162 2.107.486.231.103.494.268.787.494l-.54 1.166a5.036 5.036 0 0 0-.726-.471c-.591-.314-1.134-.474-1.628-.479-.535 0-1.011.14-1.428.417-.416.273-.625.656-.625 1.15 0 .2.039.386.116.556.082.17.221.329.417.478l.447.347c.103.077.299.19.587.34.293.149.455.234.486.255l.733.4c.355.196.597.338.726.425l.578.386c.263.175.448.335.556.479.108.138.229.31.363.517.139.205.234.43.285.671.052.242.077.51.077.803 0 .884-.368 1.625-1.103 2.222a3.906 3.906 0 0 1-2.531.895c-.793 0-1.557-.221-2.292-.663a3.982 3.982 0 0 1-.865-.68l.548-1.188c.293.262.584.484.872.664.674.442 1.253.663 1.737.663.612 0 1.134-.177 1.566-.532.432-.36.648-.82.648-1.381 0-.494-.185-.937-.555-1.328a4.745 4.745 0 0 0-1.343-.988l-1.582-.825a4.802 4.802 0 0 1-1.343-1.058 2.183 2.183 0 0 1-.548-1.458Z" fill="#000F30"/><path d="M186.021 26.78v3.307c-1.329 0-2.379.385-3.148 1.154-.77.788-1.295 1.898-1.575 3.333-.297 1.452-.481 3.244-.551 5.378-.069 2.135-.052 4.566.053 7.295 0 5.632-3.402 8.317-10.207 8.055v-4.828c.892 0 1.592-.044 2.099-.131.49-.07 1.024-.245 1.601-.525s1.006-.76 1.286-1.443c.262-.682.393-1.6.393-2.755 0-2.659.088-4.933.263-6.822.174-1.89.489-3.673.944-5.353.437-1.661 1.102-2.912 1.994-3.752.875-.84 1.951-1.26 3.227-1.26-1.294 0-2.378-.419-3.253-1.259-.875-.84-1.531-2.099-1.968-3.778a30.881 30.881 0 0 1-.944-5.352c-.175-1.89-.263-4.155-.263-6.796 0-1.154-.131-2.073-.393-2.755-.28-.682-.709-1.163-1.286-1.443-.577-.28-1.111-.455-1.601-.525-.507-.087-1.207-.131-2.099-.131V1.566c6.805-.245 10.207 2.44 10.207 8.055-.105 2.729-.122 5.16-.053 7.294.07 2.134.254 3.919.551 5.353.28 1.452.805 2.563 1.575 3.332.769.787 1.819 1.18 3.148 1.18Z" fill="url(#a)"/><path stroke="#00D2C6" stroke-width="4.215" stroke-linecap="round" d="M138.025 15.151h30.556M138.029 15.15h30.556M151.723 24.634h16.858M151.723 24.634h16.858M138.029 24.634h6.322M138.029 24.634h6.322M153.83 34.117h14.751M138.025 34.117h7.376M153.83 34.117h14.751M138.025 34.117h7.376M138.029 43.601h14.751M159.099 43.599h9.483M138.029 43.601h14.751M159.099 43.599h9.483"/><defs><linearGradient id="a" x1="178.444" y1="66" x2="218.766" y2="11.897" gradientUnits="userSpaceOnUse"><stop stop-color="#A71FBD"/><stop offset="1" stop-color="#EB4D4D"/></linearGradient></defs></svg>