<svg width="88" height="31" fill="none" xmlns="http://www.w3.org/2000/svg"><path d="M10.248 8.416c0 .03-.387.858-1.16 2.482-.26.564-.656 1.407-1.19 2.529-.05.104-.102.156-.156.156H6.698c-.073 0-.133-.052-.18-.156a81.716 81.716 0 0 1-1.235-3.179c-.266.712-.682 1.771-1.247 3.179-.042.104-.1.156-.174.156H2.824c-.058 0-.112-.052-.162-.156l-1.2-2.529C.722 9.359.353 8.532.353 8.416c0-.317.01-.795.029-1.433.02-.638.029-1.115.029-1.432 0-.07.048-.105.145-.105.07 0 .174.006.313.018.143.011.25.017.319.017.066 0 .164-.004.296-.011.131-.008.23-.012.295-.012.082 0 .122.029.122.087 0 .313-.02.787-.058 1.42a28.14 28.14 0 0 0-.052 1.416c0 .197.39 1.09 1.172 2.68.259.525.4.788.423.788.008-.004.017-.017.029-.04.046-.09.145-.337.296-.743.278-.754.564-1.61.858-2.569.012-.097.017-.402.017-.916 0-.228-.007-.569-.023-1.021a44.163 44.163 0 0 1-.017-1.027c0-.058.04-.087.122-.087.073 0 .183.006.33.018.147.011.26.017.337.017.065 0 .164-.006.295-.017.132-.012.23-.018.296-.018.089 0 .133.031.133.093 0 .244-.007.611-.023 1.102-.015.487-.023.853-.023 1.096 0 .398.002.64.006.725.011.193.303 1.042.876 2.546.061.17.162.414.301.73a.086.086 0 0 0 .023.042c.024 0 .16-.258.412-.772C8.394 9.45 8.775 8.57 8.775 8.37c0-.317-.018-.79-.053-1.42a28.128 28.128 0 0 1-.052-1.416c0-.058.016-.087.047-.087.077 0 .191.006.342.018.154.011.27.017.348.017.07 0 .176-.006.319-.017a4.37 4.37 0 0 1 .324-.018c.082 0 .128.024.14.07v.162c0 .306.01.762.029 1.37.02.606.029 1.062.029 1.368Zm6.008 4.964c0 .143-.04.215-.122.215-.12 0-.301-.002-.545-.006a38.739 38.739 0 0 0-.545-.006c-.097 0-.145-.064-.145-.191 0-.186.006-.466.017-.841.016-.375.024-.658.024-.847 0-.178-.008-.447-.024-.806a28.05 28.05 0 0 1-.017-.818c0-.696-.329-1.044-.986-1.044-.213 0-.491.107-.835.32-.367.227-.551.436-.551.626v3.445c0 .112-.04.168-.122.168-.12 0-.3-.002-.54-.006-.239-.004-.419-.006-.539-.006-.088 0-.133-.052-.133-.156v-2.802c0-.456-.025-1.426-.075-2.911a46.95 46.95 0 0 0-.099-2.041.7.7 0 0 1-.011-.093c0-.066.023-.107.07-.122.065-.023.283-.035.654-.035.082 0 .203-.013.366-.04.162-.031.28-.047.353-.047.05 0 .076.037.076.11 0 .364-.015.91-.046 1.642a48.26 48.26 0 0 0-.041 1.635c0 .09.015.135.046.14.197-.167.453-.368.766-.604a2.235 2.235 0 0 1 1.2-.354c.727 0 1.228.217 1.502.65.198.317.296.82.296 1.508 0 .12-.004.305-.011.557a39.944 39.944 0 0 0 .005 1.658c.008.491.012.859.012 1.102Zm2.627-6.733c0 .475-.265.713-.794.713-.538 0-.806-.238-.806-.713a.66.66 0 0 1 .249-.528.831.831 0 0 1 .557-.197c.216 0 .402.068.556.203.159.135.238.31.238.522Zm-.04 1.572c0 .297-.02.748-.058 1.35-.035.6-.053 1.05-.053 1.352 0 .282.006.706.018 1.27.011.56.017.98.017 1.259 0 .08-.035.122-.104.122h-1.131c-.081 0-.122-.08-.122-.238 0-.267.006-.667.017-1.2.016-.538.024-.942.024-1.213 0-.301-.024-.754-.07-1.357a21.143 21.143 0 0 1-.064-1.357c0-.066.04-.099.122-.099.07 0 .176.01.32.03.146.019.256.028.33.028.073 0 .181-.01.324-.029.147-.019.258-.029.331-.029.066 0 .099.037.099.11Zm4.384 4.297c0 .085-.008.201-.023.348-.02.182-.031.3-.035.354a.446.446 0 0 1-.017.127c-.016.027-.053.054-.11.082-.318.15-.816.226-1.497.226-.905 0-1.357-.41-1.357-1.23 0-.328.008-.821.023-1.479.016-.66.024-1.156.024-1.484 0-.159-.08-.244-.238-.256-.143 0-.285-.001-.424-.005-.08-.02-.121-.178-.121-.476 0-.112.007-.23.023-.354.011-.092.073-.148.185-.168.097 0 .192-.002.285-.006.177-.007.266-.087.266-.237 0-.155-.005-.39-.017-.708a32.207 32.207 0 0 1-.012-.713c0-.283.054-.424.163-.424.035 0 .398.06 1.09.18.089.012.133.054.133.128 0 .17-.013.425-.04.765-.023.34-.035.596-.035.766 0 .112.052.168.157.168h1.391c.066 0 .099.023.099.07 0 .046-.008.121-.023.226-.012.1-.018.176-.018.226 0 .058.002.147.006.267.004.12.006.209.006.266 0 .074-.054.11-.162.11-.155 0-.389-.009-.702-.028a10.434 10.434 0 0 0-.702-.035c-.03 0-.054.11-.07.33-.019.275-.028.66-.028 1.155v.864c0 .332.03.564.092.696.093.2.285.301.574.301.12 0 .296-.025.528-.075.232-.054.404-.081.516-.081.047 0 .07.034.07.104Zm5.741-2.047c0 .286-.123.477-.37.574-.167.062-1.363.176-3.59.342.05.34.237.63.562.87.31.228.642.342.998.342a2.69 2.69 0 0 0 1.681-.591l.186-.151c.03 0 .05.004.058.011.012.008.085.143.22.406.136.26.203.399.203.418 0 .023-.03.068-.092.133-.569.604-1.298.905-2.187.905-.897 0-1.612-.267-2.146-.8-.533-.538-.8-1.253-.8-2.146 0-.796.255-1.49.765-2.082.538-.615 1.197-.922 1.978-.922.727 0 1.334.267 1.821.8.476.518.713 1.148.713 1.89Zm-1.38-.354c0-.32-.127-.605-.383-.853-.25-.247-.535-.37-.852-.37-.356 0-.673.142-.951.428-.275.287-.412.608-.412.963 0 .081.07.122.209.122.572 0 1.256-.058 2.053-.174.224-.03.336-.07.336-.116Zm11.448 3.422c0 .03-.03.046-.092.046-.074 0-.186-.006-.337-.017a4.835 4.835 0 0 0-.336-.018c-.081 0-.203.006-.365.018a5.36 5.36 0 0 1-.36.017c-.089 0-.157-.048-.203-.145-.124-.263-.476-1.077-1.056-2.442-.057-.139-.199-.224-.423-.255-.05-.003-.226-.005-.528-.005-.533 0-.85.007-.95.023-.082.011-.123.11-.123.296 0 .27.012.676.035 1.217.027.538.04.94.04 1.207 0 .08-.038.122-.115.122-.077 0-.195-.008-.354-.024a3.095 3.095 0 0 0-.354-.029c-.065 0-.166.006-.301.018a3.897 3.897 0 0 1-.302.017c-.096 0-.145-.044-.145-.133 0-.43.02-1.073.058-1.931.043-.863.064-1.508.064-1.938 0-1.221-.044-2.524-.133-3.908l-.006-.093c-.004-.078.077-.116.243-.116.333 0 .83-.008 1.49-.023.666-.02 1.163-.03 1.491-.03.859 0 1.547.206 2.065.615.572.453.858 1.095.858 1.926 0 .572-.077 1.022-.232 1.351-.162.348-.464.679-.904.992-.074.05-.11.098-.11.145 0 .054.23.568.69 1.543.463.974.695 1.492.695 1.554Zm-1.589-5.26c0-.7-.2-1.168-.603-1.404-.297-.174-.833-.26-1.606-.26-.627 0-.946.05-.957.15-.027.209-.04.767-.04 1.676v1.108a.246.246 0 0 0 .075.023c.07.008.183.017.342.029.367.02.764.029 1.189.029 1.067 0 1.6-.45 1.6-1.351Zm7.627 2.482c0 .808-.265 1.498-.795 2.07a2.618 2.618 0 0 1-2.012.887 2.632 2.632 0 0 1-2.018-.881c-.53-.568-.795-1.257-.795-2.065s.265-1.496.795-2.064a2.66 2.66 0 0 1 2.018-.87c.796 0 1.465.29 2.006.87.534.564.8 1.249.8 2.053Zm-1.224.011c0-.471-.145-.873-.435-1.206a1.446 1.446 0 0 0-1.148-.528 1.47 1.47 0 0 0-1.154.522c-.29.337-.435.74-.435 1.212 0 .464.147.866.44 1.207.31.36.693.539 1.149.539.46 0 .843-.18 1.148-.54a1.8 1.8 0 0 0 .435-1.206Zm6.095-2.447c0 .085-.044.274-.133.568-.089.294-.15.441-.186.441L49.1 9.1a1.397 1.397 0 0 0-.574-.116c-.476 0-.872.176-1.19.528a1.802 1.802 0 0 0-.475 1.247c0 .471.159.88.476 1.223a1.55 1.55 0 0 0 1.189.534c.258 0 .514-.064.765-.191.251-.128.361-.192.33-.192.05 0 .107.163.169.487.058.294.087.497.087.61 0 .12-.226.237-.679.353-.379.097-.659.145-.84.145-.797 0-1.47-.298-2.019-.893a2.95 2.95 0 0 1-.806-2.076c0-.82.263-1.516.789-2.088.541-.588 1.216-.882 2.024-.882a2.79 2.79 0 0 1 1.484.412c.078.047.116.087.116.122Zm6.432 1.282c0 1.005-.466 1.678-1.398 2.018 0 .197.194.555.58 1.073l.58.771c0 .058-.193.097-.58.116-.255.012-.446.018-.574.018-.274 0-.446-.059-.516-.175-.182-.309-.468-.76-.858-1.35-.047-.07-.466-.1-1.259-.088l-.226.006v1.433c0 .12-.042.18-.128.18-.123 0-.307-.003-.55-.006-.24-.004-.422-.006-.546-.006-.085 0-.127-.076-.127-.227V9.761c0-.471-.02-1.177-.058-2.117a62.498 62.498 0 0 1-.053-2.116c0-.07.037-.109.11-.116.128-.004.322-.012.58-.024.055-.003.169-.017.343-.04.139-.02.251-.03.336-.03.054 0 .081.047.081.14 0 .209-.01.52-.029.934-.019.413-.029.725-.029.933v1.497c0 .08.018.122.053.122.092-.078.232-.192.417-.343.65-.502 1.268-.754 1.856-.754.572 0 1.04.147 1.404.441.394.321.591.76.591 1.317Zm-1.398.272c0-.553-.357-.83-1.073-.83-.533 0-1.134.357-1.803 1.068v.864c.313.058.692.087 1.136.087.449 0 .832-.085 1.149-.255.394-.213.591-.524.591-.934ZM.072 16.934v-.493H3.86v.493H2.302v4.704h-.667v-4.704H.072Zm4.948 4.704v-5.197h3.313v.475H5.687v1.649h2.2v.475h-2.2v2.124h2.646v.474H5.02Zm5.11-.685a2.618 2.618 0 0 1-.797-1.913c0-.742.266-1.379.797-1.91a2.606 2.606 0 0 1 1.91-.798 2.67 2.67 0 0 1 1.65.562l-.432.431a1.97 1.97 0 0 0-1.218-.431c-.563 0-1.043.21-1.442.63-.399.421-.598.926-.598 1.516s.199 1.094.598 1.515c.398.42.88.63 1.442.63.445 0 .851-.14 1.218-.424l.432.432c-.5.372-1.05.558-1.65.558a2.606 2.606 0 0 1-1.91-.798Zm4.965.686V16.44h.667v2.356h2.6V16.44h.67v5.198h-.67v-2.353h-2.6v2.352h-.667Zm5.586 0V16.44h.667l2.606 4.085V16.44h.667v5.198h-.667l-2.606-4.09v4.09h-.667Zm6.013-.678c-.505-.53-.758-1.17-.758-1.921 0-.752.253-1.391.758-1.918.505-.527 1.143-.79 1.914-.79.773 0 1.424.265 1.953.794.53.529.794 1.167.794 1.914a2.62 2.62 0 0 1-.794 1.917c-.529.53-1.18.794-1.953.794-.771 0-1.41-.264-1.914-.79Zm.47-3.444c-.374.416-.56.923-.56 1.523 0 .599.186 1.106.56 1.522.378.416.859.623 1.444.623a1.97 1.97 0 0 0 1.478-.627c.402-.418.602-.924.602-1.518 0-.595-.2-1.101-.602-1.52a1.97 1.97 0 0 0-1.478-.626c-.585 0-1.066.208-1.443.623Zm5.579 4.122V16.44h.667v4.708h2.519v.49h-3.186Zm4.918-.678c-.505-.53-.757-1.17-.757-1.921 0-.752.252-1.391.757-1.918.505-.527 1.143-.79 1.914-.79.773 0 1.424.265 1.954.794.529.529.793 1.167.793 1.914a2.62 2.62 0 0 1-.793 1.917c-.53.53-1.18.794-1.954.794-.77 0-1.409-.264-1.914-.79Zm.471-3.444c-.374.416-.561.923-.561 1.523 0 .599.187 1.106.561 1.522.377.416.858.623 1.443.623a1.97 1.97 0 0 0 1.479-.627c.401-.418.602-.924.602-1.518 0-.595-.201-1.101-.602-1.52a1.97 1.97 0 0 0-1.479-.626c-.585 0-1.066.208-1.443.623Zm6.321 3.436a2.618 2.618 0 0 1-.797-1.913c0-.742.266-1.379.797-1.91a2.606 2.606 0 0 1 1.91-.798 2.67 2.67 0 0 1 1.65.562l-.431.431a1.97 1.97 0 0 0-1.218-.431c-.563 0-1.044.21-1.443.63-.399.421-.598.926-.598 1.516s.2 1.094.598 1.515c.399.42.88.63 1.443.63.48 0 .907-.158 1.28-.474v-1.298h-.998v-.475h1.664v1.986a2.97 2.97 0 0 1-.446.374 2.653 2.653 0 0 1-1.5.453 2.606 2.606 0 0 1-1.91-.798Zm5.234.686V16.44h.667v5.198h-.667Zm2.388 0V16.44h3.313v.475h-2.646v1.649h2.2v.475h-2.2v2.124h2.646v.474h-3.313Zm4.48-4.01c0-.381.164-.693.493-.934a1.87 1.87 0 0 1 1.138-.363c.331 0 .661.076.99.228.108.049.232.126.37.232l-.254.548a2.343 2.343 0 0 0-.341-.221c-.278-.148-.533-.223-.765-.225a1.18 1.18 0 0 0-.67.196.61.61 0 0 0-.294.54c0 .094.018.18.054.26.039.08.104.155.196.225l.21.164c.048.036.14.089.276.159.137.07.214.11.228.12l.344.188c.167.092.28.158.341.2l.272.18c.123.083.21.158.26.225.052.066.108.147.171.243.066.097.11.202.134.316.025.113.037.239.037.377 0 .415-.173.763-.519 1.044-.345.28-.742.42-1.189.42a2.06 2.06 0 0 1-1.076-.312 1.878 1.878 0 0 1-.406-.319l.257-.558c.138.123.275.227.41.312.316.208.588.312.815.312.288 0 .533-.084.736-.25a.807.807 0 0 0 .305-.65.883.883 0 0 0-.261-.623 2.224 2.224 0 0 0-.63-.464l-.744-.388a2.251 2.251 0 0 1-.63-.496 1.025 1.025 0 0 1-.258-.685Z" fill="#EEE"/><path d="M87.374 12.534v1.552c-.624 0-1.117.181-1.478.543-.362.37-.609.891-.74 1.565-.14.682-.226 1.524-.259 2.526a48.689 48.689 0 0 0 .025 3.426c0 2.646-1.598 3.907-4.794 3.784v-2.268c.419 0 .748-.02.986-.062.23-.033.48-.115.751-.246.272-.132.473-.357.604-.678.124-.32.185-.752.185-1.294 0-1.249.041-2.317.124-3.204.082-.887.23-1.726.443-2.514.206-.78.518-1.368.937-1.763.41-.394.916-.591 1.516-.591-.608 0-1.118-.197-1.529-.592-.41-.394-.718-.986-.924-1.774a14.55 14.55 0 0 1-.444-2.514 35.294 35.294 0 0 1-.123-3.192c0-.543-.061-.974-.185-1.294-.131-.32-.332-.547-.603-.678a2.584 2.584 0 0 0-.752-.247 6.12 6.12 0 0 0-.986-.061V.69c3.196-.115 4.794 1.146 4.794 3.784a48.69 48.69 0 0 0-.025 3.426c.033 1.002.12 1.84.259 2.514.131.682.378 1.203.74 1.565.361.37.854.555 1.478.555Z" fill="url(#a)"/><path stroke="#00D2C6" stroke-width="1.98" stroke-linecap="round" d="M64.83 7.116h14.351M64.832 7.116h14.352M71.263 11.57h7.918M71.263 11.57h7.918M64.832 11.57h2.97M64.832 11.57h2.97M72.254 16.025h6.928M64.83 16.024h3.464M72.254 16.025h6.928M64.83 16.024h3.464M64.832 20.48h6.928M74.728 20.478h4.454M64.832 20.48h6.928M74.728 20.478h4.454"/><defs><linearGradient id="a" x1="83.815" y1="31" x2="102.754" y2="5.588" gradientUnits="userSpaceOnUse"><stop stop-color="#A71FBD"/><stop offset="1" stop-color="#EB4D4D"/></linearGradient></defs></svg>